<svg xmlns="http://www.w3.org/2000/svg" viewBox="0 0 506.26 570.79"><defs><style>.cls-1{fill:#fff;}.cls-2{fill:#c8900c;}</style></defs><g id="Capa_2" data-name="Capa 2"><g id="Capa_1-2" data-name="Capa 1"><path d="M253.13,319.52c-78.48,0-142.32-63.85-142.32-142.33S174.65,34.87,253.13,34.87,395.45,98.72,395.45,177.19,331.61,319.52,253.13,319.52Zm0-282.84c-77.48,0-140.52,63-140.52,140.51s63,140.52,140.52,140.52,140.52-63,140.52-140.52S330.61,36.68,253.13,36.68Z"/><path d="M395,281.59a12.55,12.55,0,0,1,0,6.66,8.73,8.73,0,0,1-4.9,5.57,29.49,29.49,0,0,1-7.27,2.32c-4,.8-8.07,1.56-12.11,2.32a25,25,0,0,0-4.34,1.33c-.15,1.31-.29,2.59-.44,3.87-.13,1.11-.25,2.23-.43,3.33a34.74,34.74,0,0,1-2.6,7.74,45.81,45.81,0,0,1-8.49,13,65.37,65.37,0,0,1-8,7.41,111.84,111.84,0,0,1-12.11,8.48c-3.37,2-6.93,3.55-10.46,5.2a97.13,97.13,0,0,1-15.29,5.33c-1.33.36-2.64.82-3.94,1.27a35.41,35.41,0,0,1-6.59,1.37c-3.59.52-7.21.9-10.77,1.57-4.85.93-9.74,1.5-14.63,2.07-3.35.4-6.7.72-10.06,1-1.55.15-3.11.16-4.67.18-2.51,0-5,0-7.54,0-2.85-.05-5.71-.07-8.56-.27-5.35-.37-10.69-.84-16-1.68-4.78-.76-9.5-1.87-14.21-3-7.82-1.89-15.49-4.3-23.13-6.85a109.36,109.36,0,0,1-17-7.29c-2.4-1.29-4.77-2.63-7.16-3.93a48.13,48.13,0,0,1-9.08-6.86,65,65,0,0,1-6.48-6.9,43,43,0,0,1-8.48-15.06c-.75-2.48-1.5-5-2.14-7.48a26.28,26.28,0,0,1-.56-9.27,28.26,28.26,0,0,0,0-2.94,6.41,6.41,0,0,0-.94-.8,21,21,0,0,0-6.33-2.94c-2.42-.51-4.86-.88-7.27-1.37s-4.59-.91-6.85-1.52a7.42,7.42,0,0,1-4-2.72,6.42,6.42,0,0,1-1.34-4.51,15.42,15.42,0,0,1,1.54-5.72,32.5,32.5,0,0,1,7.56-9.48c.9-.82,1.85-1.57,2.81-2.31a6,6,0,0,1,5.56-.91,53.17,53.17,0,0,1,7.92,2.88,74.73,74.73,0,0,1,10.83,6.42c.21.14.43.29.65.42a1.32,1.32,0,0,0,.35.06c.68-.81,1.41-1.66,2.1-2.53a56,56,0,0,1,11.51-10.43,101.39,101.39,0,0,1,10-6.53,73.47,73.47,0,0,1,16.48-6.88c2.67-.72,5.32-1.51,8-2.21,1.33-.34,2.71-.56,4.06-.85l.85.08a24.67,24.67,0,0,0,.31,4.39c0,.07.15.13.24.19v0h0c-.29.24-.57.5-.87.72a29.91,29.91,0,0,0-6,5.11c-1.39,1.61-2.81,3.18-3.24,5.36,0,.21,0,.44-.06.71.83-.48,1.59-.95,2.34-1.38l.27.45a7.75,7.75,0,0,0-1.14.8,42.39,42.39,0,0,0-4.48,4.51,29.73,29.73,0,0,0-4.69,7.89,48,48,0,0,0-3.65,13.09,16,16,0,0,0,.18,6.16,76.56,76.56,0,0,1,2.15,11.84,8.47,8.47,0,0,0,1.94,4.72,23.52,23.52,0,0,1,2.69,3.95c1.87,3.47,3.59,7,5.42,10.51,1.56,2.94,3.17,5.86,4.78,8.78a18.64,18.64,0,0,0,4.92,5.79l6.75,5.27c1.33,1,2.6,2.17,4,3.11a66.13,66.13,0,0,0,11,5.83c3.57,1.53,7.24,2.85,10.68,4.69a16.75,16.75,0,0,0,7.75,1.87c4.2.08,8.4.11,12.6.15q2.73,0,5.46,0a11,11,0,0,0,4.06-.72c1.28-.54,2.55-1.1,3.77-1.75,4.3-2.33,8.57-4.71,12.86-7,4.12-2.22,8.11-4.67,12.54-6.24a1.63,1.63,0,0,0,1-.79c0-.06.15-.08.23-.11l.39.41c2.19-.81,4.39-1.58,6.56-2.43A32.9,32.9,0,0,1,309,332a18.24,18.24,0,0,0,4.62-1.28A5,5,0,0,0,316,329a1.08,1.08,0,0,1,.2-.16l.53.14c.34-.29.71-.58,1.06-.9,1-.93,2-1.88,3.07-2.79a34.64,34.64,0,0,0,8.27-10.4,42.26,42.26,0,0,0,3-8.28,3.82,3.82,0,0,0,.06-.9,44.7,44.7,0,0,0-.62-6.83,27.42,27.42,0,0,1-.33-6.46,7.36,7.36,0,0,0,.15-1.67c-.26-2-.5-4-.91-6A66,66,0,0,1,329.11,271c0-1.65-.05-3.3,0-4.94a17.23,17.23,0,0,0-1.55-7.56,88.34,88.34,0,0,0-4.23-8.63,34.73,34.73,0,0,0-3.89-5.82,12,12,0,0,0-2.39-2.07l.37-.53a10.38,10.38,0,0,1,2.43,2,34.68,34.68,0,0,1,2.28,3,4.44,4.44,0,0,0,1.65,1.57c1.12.57,2.23,1.18,3.28,1.84,3.49,2.18,7,4.39,10.43,6.59a71.74,71.74,0,0,1,8.05,5.91c.59.5,1.19,1,1.89,1.52l.61.26c0,.08-.05.16-.08.24A63.71,63.71,0,0,1,359,276.27c.75-.34,1.47-.6,2.14-1,1.62-.91,3.19-1.91,4.82-2.8a41.93,41.93,0,0,1,11.83-4.56,10.86,10.86,0,0,1,7.55,1,13,13,0,0,1,2.85,2.22c1.39,1.37,2.68,2.83,4,4.28A12.26,12.26,0,0,1,394,278.9,20,20,0,0,1,395,281.59Zm-4.66,6.57c1-1.49,1.7-3.05.74-4.86a1.37,1.37,0,0,1-.11-.36,14.51,14.51,0,0,0-3.59-6.24c-.61-.67-1.29-1.28-1.87-2a6.36,6.36,0,0,0-5.75-2.34,22,22,0,0,0-6.87,1.77c-1.75.75-3.51,1.5-5.24,2.28s-3.54,1.61-5.31,2.44a3.81,3.81,0,0,0-1.29.78c.32.72.63,1.39.93,2.06a39.89,39.89,0,0,1,3.13,9.59c.15,1,.49,1.91.75,2.91.84-.09,1.49-.12,2.12-.24l12-2.24a61.86,61.86,0,0,0,8.17-2.07A4,4,0,0,0,390.32,288.16ZM362,304.75a16.33,16.33,0,0,0,.36-4.13c-.17-2.46-.29-4.93-.49-7.39a33.71,33.71,0,0,0-2.33-9.7,33.22,33.22,0,0,0-9.37-13.39q-5.66-4.78-11.39-9.48a109.69,109.69,0,0,0-11.31-8.09,7.36,7.36,0,0,0-.85-.41,1.54,1.54,0,0,0,.59.7c1.12.76,2.25,1.47,3.35,2.25a216.21,216.21,0,0,1,20.27,16.47,25.45,25.45,0,0,1,4.91,6,39.38,39.38,0,0,1,4.94,11.82,72.06,72.06,0,0,1,1,7.59,27.47,27.47,0,0,1-.56,9,49.69,49.69,0,0,1-4.08,10.37,12,12,0,0,1-1.28,1.76l-.17-.09a8,8,0,0,1,.26-.83c.47-1.25,1-2.49,1.43-3.76a14.91,14.91,0,0,0,.47-7.56,66,66,0,0,0-2.31-8.65,49.38,49.38,0,0,0-14.35-22.08c-3.22-2.89-6.62-5.59-9.94-8.37a5.5,5.5,0,0,0-.63-.4,1.13,1.13,0,0,0-.62,1.17c.28.25.59.55.91.83,3.06,2.7,6.17,5.33,9.15,8.11a51,51,0,0,1,10.38,13.57,70.33,70.33,0,0,1,6,17.26,9.29,9.29,0,0,1,.09,4.26c-.35,1.47-.71,2.94-1.13,4.39s-.89,2.81-1.37,4.2a3.13,3.13,0,0,1-.53.87c-1,1.16-1.93,2.35-3,3.45a48.41,48.41,0,0,1-11.21,9c-4,2.26-7.94,4.44-12,6.58a101.57,101.57,0,0,1-14.21,6.37,144.6,144.6,0,0,1-17.16,5.14c-4.23.91-8.48,1.72-12.72,2.58a159.28,159.28,0,0,1-19.81,2.69l-9.06.64c-.16,0-.3.06-.68.15a2.59,2.59,0,0,0,1.7.08c3.29-.15,6.58-.27,9.85-.54a106,106,0,0,0,13.52-1.68c3.13-.67,6.32-1.05,9.46-1.69,4.57-.94,9.17-1.85,13.68-3a114.61,114.61,0,0,0,15.59-5.33,151.13,151.13,0,0,0,14.43-7.15c2.8-1.55,5.63-3.07,8.35-4.74a47.89,47.89,0,0,0,8.85-7,89.63,89.63,0,0,0,8.16-9.57,4.41,4.41,0,0,0,.47-.77c.59-1.26,1.17-2.51,1.74-3.78A34.13,34.13,0,0,0,362,304.75Zm-68.46,33.3a2.32,2.32,0,0,0-.55,0c-.68.28-1.37.54-2,.87-4.93,2.42-9.67,5.18-14.47,7.84-3.33,1.83-6.71,3.58-10.06,5.36-.05,0-.05.13-.1.28a13.89,13.89,0,0,0,5,.6c.94,0,1.89-.11,2.84-.13a10.21,10.21,0,0,0,4.38-1,67.56,67.56,0,0,0,8.35-5,11.24,11.24,0,0,0,2-1.67A33.39,33.39,0,0,0,293.53,338.05Zm-42.11,19.54-.89,0c-3.42-.22-6.84-.4-10.25-.67s-6.65-.58-10-.9a60.54,60.54,0,0,1-10-1.51l-10.91-2.93a212.4,212.4,0,0,1-41.33-16.38,27.36,27.36,0,0,1-8.43-6.63c-3.27-3.82-6.49-7.68-9.77-11.48a8.36,8.36,0,0,1-1.81-4.75c-.09-.82,0-1.65-.08-2.47a17.69,17.69,0,0,1,.86-6.54,114.18,114.18,0,0,1,6.25-15.95,15.9,15.9,0,0,1,2.5-3.78c1.4-1.54,2.76-3.12,4.25-4.57a89.22,89.22,0,0,1,19.28-14.68,7.86,7.86,0,0,0,1.17-.81c.12-.09.11-.34.23-.71-.63.26-1.07.43-1.49.63a77.5,77.5,0,0,0-23.11,16.78,25.92,25.92,0,0,0-5.42,8,141.48,141.48,0,0,0-5.09,14.59,21.17,21.17,0,0,0-.72,9.12,2.13,2.13,0,0,1-.05.46,1.66,1.66,0,0,1-.29-.22A26,26,0,0,1,142,300.73a54,54,0,0,1-.18-10.64,34.65,34.65,0,0,1,2.31-10.37,14.85,14.85,0,0,1,2.51-4.37c1.7-2,3.47-3.87,5.21-5.8a1.91,1.91,0,0,0,.57-.87,6.26,6.26,0,0,0-.71.49c-1.56,1.62-3.18,3.2-4.67,4.89a16.82,16.82,0,0,0-3.4,5.34c-.49,1.34-1,2.69-1.34,4.07A43.78,43.78,0,0,0,141.13,297a30.51,30.51,0,0,0,.6,5.29,39.15,39.15,0,0,0,3,8.41c.13.27.28.62.51.71.46.2.6.6.83,1,.51.8.93,1.67,1.51,2.41,1.65,2.12,3.35,4.2,5,6.29,2.62,3.23,5.3,6.41,8.2,9.4a23.5,23.5,0,0,0,6.63,5c4.19,2.06,8.38,4.14,12.62,6.11a157.17,157.17,0,0,0,20.2,7.85c5.5,1.68,11.05,3.2,16.59,4.77a60.18,60.18,0,0,0,11.6,2.15c1.94.16,3.88.31,5.82.49,5.27.5,10.54.92,15.82,1.11C250.53,357.94,251,358.07,251.42,357.59ZM197.63,241.14a2.31,2.31,0,0,0-1.16.16l-4.67,1.57c-1.52.52-3.07.94-4.53,1.59q-6,2.67-11.88,5.51a38.52,38.52,0,0,0-9,6c-2.56,2.27-5.07,4.59-7.59,6.9-.76.69-1.5,1.4-2.25,2.11l.2.22c.23-.18.48-.34.7-.53l7-6.25a50.82,50.82,0,0,1,9.61-7.06c4.26-2.3,8.65-4.35,13.1-6.28.67-.29,1.37-.53,2-.78l7.81-2.82A5.28,5.28,0,0,0,197.63,241.14Zm-51.36,28.74a2.81,2.81,0,0,0-.32-.34c-.6-.42-1.2-.85-1.82-1.25a106.25,106.25,0,0,0-11.9-6.39,16.77,16.77,0,0,0-3.1-.9,4,4,0,0,0-2.43.18,15.07,15.07,0,0,0-5.25,3c-.94.9-1.88,1.8-2.75,2.76a12.88,12.88,0,0,0-3.61,6.91,4.45,4.45,0,0,0,1.38,4.36,21.6,21.6,0,0,0,1.94,1.52,16.3,16.3,0,0,0,5.45,2c2.86.67,5.74,1.27,8.61,1.94a16.88,16.88,0,0,1,5.36,2.25,4.9,4.9,0,0,0,.66.31A96.37,96.37,0,0,1,146.27,269.88Z"/><path class="cls-1" d="M362.35,300.62a16.33,16.33,0,0,1-.36,4.13,34.13,34.13,0,0,1-2.56,7.74c-.57,1.27-1.15,2.52-1.74,3.78a4.41,4.41,0,0,1-.47.77,89.63,89.63,0,0,1-8.16,9.57,47.89,47.89,0,0,1-8.85,7c-2.72,1.67-5.55,3.19-8.35,4.74a151.13,151.13,0,0,1-14.43,7.15,114.61,114.61,0,0,1-15.59,5.33c-4.51,1.19-9.11,2.1-13.68,3-3.14.64-6.33,1-9.46,1.69a106,106,0,0,1-13.52,1.68c-3.27.27-6.56.39-9.85.54a2.59,2.59,0,0,1-1.7-.08c.38-.09.52-.13.68-.15l9.06-.64a159.28,159.28,0,0,0,19.81-2.69c4.24-.86,8.49-1.67,12.72-2.58a144.6,144.6,0,0,0,17.16-5.14,101.57,101.57,0,0,0,14.21-6.37c4-2.14,8-4.32,12-6.58a48.41,48.41,0,0,0,11.21-9c1-1.1,2-2.29,3-3.45a3.13,3.13,0,0,0,.53-.87c.48-1.39,1-2.79,1.37-4.2s.78-2.92,1.13-4.39a9.29,9.29,0,0,0-.09-4.26,70.33,70.33,0,0,0-6-17.26A51,51,0,0,0,340,276.55c-3-2.78-6.09-5.41-9.15-8.11-.32-.28-.63-.58-.91-.83a1.13,1.13,0,0,1,.62-1.17,5.5,5.5,0,0,1,.63.4c3.32,2.78,6.72,5.48,9.94,8.37a49.38,49.38,0,0,1,14.35,22.08,66,66,0,0,1,2.31,8.65,14.91,14.91,0,0,1-.47,7.56c-.43,1.27-1,2.51-1.43,3.76a8,8,0,0,0-.26.83l.17.09a12,12,0,0,0,1.28-1.76,49.69,49.69,0,0,0,4.08-10.37,27.47,27.47,0,0,0,.56-9,72.06,72.06,0,0,0-1-7.59,39.38,39.38,0,0,0-4.94-11.82,25.45,25.45,0,0,0-4.91-6,216.21,216.21,0,0,0-20.27-16.47c-1.1-.78-2.23-1.49-3.35-2.25a1.54,1.54,0,0,1-.59-.7,7.36,7.36,0,0,1,.85.41,109.69,109.69,0,0,1,11.31,8.09q5.75,4.68,11.39,9.48a33.22,33.22,0,0,1,9.37,13.39,33.71,33.71,0,0,1,2.33,9.7C362.06,295.69,362.18,298.16,362.35,300.62Z"/><path d="M360.62,161.13a25.57,25.57,0,0,1,.61,7.34,32.72,32.72,0,0,1-.8,5.11,54,54,0,0,1-3.3,10.38c-.71,1.57-1.45,3.13-2.2,4.72a3.39,3.39,0,0,0,.17.48,12.4,12.4,0,0,1,1.3,3.89l-.92.16a8.57,8.57,0,0,0-1.27-3c-1.25,2.17-2.46,4.28-3.68,6.36-.82,1.42-1.63,2.84-2.5,4.22s-1.81,2.75-2.68,4.13a3.68,3.68,0,0,0-.46,1.19q-.5,3.08-.93,6.15a7.47,7.47,0,0,0,0,1.42c0,1.42.14,2.85.19,4.27a5.26,5.26,0,0,1-1.86,4.37c-.17.14-.32.3-.48.45a49.68,49.68,0,0,1-6.32,4.75,16.31,16.31,0,0,1-2.52,1.58,5.81,5.81,0,0,0-1.69,1.08,3.12,3.12,0,0,1-1.42.84c-1.53.19-3.09.2-4.75.29a20.47,20.47,0,0,1-2.31,1.12c-1.39.47-2.81.86-4.23,1.24a7.12,7.12,0,0,1-3.34,0c-1.14-.25-2.27-.58-3.39-.89a6.11,6.11,0,0,1-.76-.31l.28-.65,1.44.23c1.19.22,2.38.45,3.58.66a3.11,3.11,0,0,0,1,0,26.75,26.75,0,0,0,5.35-1.58,5.93,5.93,0,0,0,2-1.37c1-1.07,2-2.15,3.13-3.12,1.27-1.11,2.63-2.11,4-3.14.13-.1.35-.07.64-.12a3,3,0,0,1-.3.58,4.82,4.82,0,0,1-.65.63,33.09,33.09,0,0,0-4.9,5,3.12,3.12,0,0,0-.36.65,7.21,7.21,0,0,0,2.39-.14,3,3,0,0,0,2.14-1.08c.77-.88,1.55-1.74,2.29-2.64,1.44-1.78,2.85-3.59,4.28-5.38.25-.32.43-.74.89-.78.07.08.13.13.13.15a5.4,5.4,0,0,1-.33.82,37.65,37.65,0,0,1-3.33,5.11c-.19.23-.52.45-.34,1,1-.84,2-1.6,3-2.39,1.33-1.12,2.64-2.24,3.94-3.39a3.87,3.87,0,0,0,1.55-3.4c-.08-.81-.11-1.63-.14-2.44a13.49,13.49,0,0,1,0-2.2c.39-2.82.83-5.63,1.28-8.44a16,16,0,0,1,.55-2.27,1.75,1.75,0,0,1,.61-.79c.15-.11.45,0,.71,0,.61-.83,1.28-1.63,1.82-2.52.94-1.55,1.78-3.16,2.68-4.74,2-3.53,3.84-7.18,5.52-10.88A59.91,59.91,0,0,0,359.52,172a24.32,24.32,0,0,0,.27-9.27c-.43-2.56-1-5.09-1.54-7.62a2.85,2.85,0,0,0-.17-.42c-1,.6-1.86,1.14-2.75,1.67a18.45,18.45,0,0,1-5.71,2.42,87.26,87.26,0,0,1-9.45,1.64c-.9.08-1.81.13-2.73.13-.63,0-1.25.11-1.88.17.87,2,1.7,3.9,2.57,5.88a3.28,3.28,0,0,0,.82-1.37c.24-.88.49-1.75.74-2.61.1-.32.18-.64.63-.64h.1a5,5,0,0,1-.49,3c-1.09,2.31-2.22,4.6-3.28,6.92a22.16,22.16,0,0,0-2,5.32c-.42,2.24-.77,4.5-1.13,6.76s-.67,4.71-1.06,7a14.9,14.9,0,0,1-1,3.75c-.41.88-.85,1.74-1.33,2.58l-.52-.31a14.07,14.07,0,0,0,1.5-3.83,38.35,38.35,0,0,0,.81-5.77c.2-2.89.65-5.74,1.11-8.6a20.73,20.73,0,0,1,2.66-7.41c.65-1.11,1.24-2.26,1.91-3.47-1.3-2.76-2.59-5.54-3.93-8.42a23,23,0,0,1-5.47.51,13.22,13.22,0,0,1-.53-1.28c-1.65-5.15-3.31-10.29-4.93-15.45-.74-2.38-1.51-4.76-2.06-7.17-.78-3.46-1.37-7-2-10.44-.34-1.73-.62-3.49-1-5.21-.73-3-1.59-5.92-2.29-8.91s-1.2-5.84-1.85-8.75a41.73,41.73,0,0,0-1.15-4.11c-.44-1.32-1-2.58-1.48-3.89-1.15-3.45-2.29-6.9-3.37-10.37a51.72,51.72,0,0,1-2.35-10.22,14.62,14.62,0,0,0-.33-1.7l.19-.8a6.35,6.35,0,0,1,2,.92,7.05,7.05,0,0,0,1.43.6c5.78,2.32,11.56,4.66,17.1,7.52a69.43,69.43,0,0,1,12.95,8.14,24,24,0,0,1,5.88,6.68,23,23,0,0,1,2.43,7,16.12,16.12,0,0,0,1.05,3.74C349,109,350,111.77,351,114.58c1.08,3.1,2.28,6.16,3.38,9.26a84.33,84.33,0,0,1,2.54,9.25c.55,2.32,1,4.65,1.61,6.95.7,2.67,1.5,5.32,2.29,8a9.66,9.66,0,0,0,.68,1.38c-.69.71-1.45,1.47-2.27,2.3l.91,1-1.08,1.3C359.57,156.34,360.1,158.73,360.62,161.13Zm-29.78-46.28c.12-.27.39-.54.16-1-.24.46-.46.84-.63,1.23-1.48,3.32-3,6.63-4.41,10-.89,2.06-1.64,4.19-2.56,6.24a13.8,13.8,0,0,0-1.21,7.6c.08-.86.15-1.72.24-2.57a22.22,22.22,0,0,1,1.88-5.92C326.46,125.22,328.67,120,330.84,114.85ZM325.27,109a71.61,71.61,0,0,0,.36-7.89c-.06-1.4-.18-2.8-.28-4.2a.83.83,0,0,0-.15.5c-.07,4.59-.08,9.17-.54,13.74a54.71,54.71,0,0,1-1.94,11.21c-.07.24-.11.49-.18.73a22.86,22.86,0,0,0,2.33-8.78C325,112.55,325.15,110.78,325.27,109Z"/><path class="cls-1" d="M359.79,162.68a24.32,24.32,0,0,1-.27,9.27,59.91,59.91,0,0,1-3.72,11.87c-1.68,3.7-3.49,7.35-5.52,10.88-.9,1.58-1.74,3.19-2.68,4.74-.54.89-1.21,1.69-1.82,2.52-.26,0-.56-.1-.71,0a1.75,1.75,0,0,0-.61.79,16,16,0,0,0-.55,2.27c-.45,2.81-.89,5.62-1.28,8.44a13.49,13.49,0,0,0,0,2.2c0,.81.06,1.63.14,2.44a3.87,3.87,0,0,1-1.55,3.4c-1.3,1.15-2.61,2.27-3.94,3.39-.95.79-1.93,1.55-3,2.39-.18-.54.15-.76.34-1a37.65,37.65,0,0,0,3.33-5.11,5.4,5.4,0,0,0,.33-.82s-.06-.07-.13-.15c-.46,0-.64.46-.89.78-1.43,1.79-2.84,3.6-4.28,5.38-.74.9-1.52,1.76-2.29,2.64a3,3,0,0,1-2.14,1.08,7.21,7.21,0,0,1-2.39.14,3.12,3.12,0,0,1,.36-.65,33.09,33.09,0,0,1,4.9-5,4.82,4.82,0,0,0,.65-.63,3,3,0,0,0,.3-.58c-.29.05-.51,0-.64.12-1.33,1-2.69,2-4,3.14-1.1,1-2.11,2.05-3.13,3.12a5.93,5.93,0,0,1-2,1.37,26.75,26.75,0,0,1-5.35,1.58,3.11,3.11,0,0,1-1,0c-1.2-.21-2.39-.44-3.58-.66l-1.44-.23-.66-.15.88-.54c1.08-.64,2.17-1.26,3.26-1.88a4.5,4.5,0,0,1,2.28-.8,4,4,0,0,0,2.47-1.3,10.06,10.06,0,0,0,3.34-5.29,6.8,6.8,0,0,0-.13-3.71,2,2,0,0,0-.83,1.56l-6.68,4.76-1.35-.17a1.94,1.94,0,0,1,.39-1c.68-1.16,1.42-2.28,2-3.49.76-1.55,1.4-3.15,2.07-4.75A40.74,40.74,0,0,1,326,202.78a30.51,30.51,0,0,0,4.05-5.49c.48-.84.92-1.7,1.33-2.58a14.9,14.9,0,0,0,1-3.75c.39-2.33.69-4.69,1.06-7s.71-4.52,1.13-6.76a22.16,22.16,0,0,1,2-5.32c1.06-2.32,2.19-4.61,3.28-6.92a5,5,0,0,0,.49-3h-.1l-.15-1.56a87.26,87.26,0,0,0,9.45-1.64,18.45,18.45,0,0,0,5.71-2.42c.89-.53,1.77-1.07,2.75-1.67a2.85,2.85,0,0,1,.17.42C358.77,157.59,359.36,160.12,359.79,162.68Z"/><path d="M356.94,204.86c.06,1.47.25,2.93.23,4.4,0,2.46-.19,4.92-.31,7.38-.08,1.64-.13,3.28-.29,4.92-.34,3.43-.73,6.86-1.14,10.29-.63,5.2-1.78,10.3-2.92,15.41-1,4.6-2.22,9.16-3.52,13.69-.17.62-.3,1.26-.48,1.88-.12.43-.27.84-.46,1.37l-.61-.26c.89-3.83,1.79-7.51,2.59-11.22.88-4.14,1.72-8.29,2.48-12.45.61-3.36,1.12-6.73,1.56-10.11.4-3,.68-6,1-9,.17-1.81.24-3.62.36-5.44.14-2.32.36-4.65.4-7s-.11-4.92-.15-7.39c0-2,0-4,0-6a15.93,15.93,0,0,0-.08-1.69c0-.15-.05-.3-.07-.46l.92-.16a21.5,21.5,0,0,1,.28,3.51C356.72,199.33,356.84,202.1,356.94,204.86Z"/><path class="cls-1" d="M355.64,201.34c0,2.47.19,4.93.15,7.39s-.26,4.66-.4,7c-.12,1.82-.19,3.63-.36,5.44-.28,3-.56,6-1,9-.44,3.38-.95,6.75-1.56,10.11-.76,4.16-1.6,8.31-2.48,12.45-.8,3.71-1.7,7.39-2.59,11.22-.7-.55-1.3-1-1.89-1.52a71.74,71.74,0,0,0-8.05-5.91c-3.47-2.2-6.94-4.41-10.43-6.59-1.05-.66-2.16-1.27-3.28-1.84a4.44,4.44,0,0,1-1.65-1.57,34.68,34.68,0,0,0-2.28-3,10.38,10.38,0,0,0-2.43-2l-.38-.24-1.32-.84a5.85,5.85,0,0,1-1.87-1.93c-.84-1.35-1.73-2.66-2.62-4l-.89-1.32-.6-.94.9-.56.66.15-.28.65a6.11,6.11,0,0,0,.76.31c1.12.31,2.25.64,3.39.89a7.12,7.12,0,0,0,3.34,0c1.42-.38,2.84-.77,4.23-1.24a20.47,20.47,0,0,0,2.31-1.12c1.66-.09,3.22-.1,4.75-.29a3.12,3.12,0,0,0,1.42-.84,5.81,5.81,0,0,1,1.69-1.08,16.31,16.31,0,0,0,2.52-1.58,49.68,49.68,0,0,0,6.32-4.75c.16-.15.31-.31.48-.45A5.26,5.26,0,0,0,344.1,218c-.05-1.42-.14-2.85-.19-4.27a7.47,7.47,0,0,1,0-1.42q.44-3.07.93-6.15a3.68,3.68,0,0,1,.46-1.19c.87-1.38,1.82-2.73,2.68-4.13s1.68-2.8,2.5-4.22c1.22-2.08,2.43-4.19,3.68-6.36a8.57,8.57,0,0,1,1.27,3c0,.16,0,.31.07.46a15.93,15.93,0,0,1,.08,1.69C355.64,197.35,355.62,199.35,355.64,201.34Z"/><path class="cls-1" d="M340.17,160.37l.15,1.56c-.45,0-.53.32-.63.64-.25.86-.5,1.73-.74,2.61a3.28,3.28,0,0,1-.82,1.37c-.87-2-1.7-3.89-2.57-5.88.63-.06,1.25-.16,1.88-.17C338.36,160.5,339.27,160.45,340.17,160.37Z"/><path class="cls-1" d="M337.54,167.9c-.67,1.21-1.26,2.36-1.91,3.47a20.73,20.73,0,0,0-2.66,7.41c-.46,2.86-.91,5.71-1.11,8.6a38.35,38.35,0,0,1-.81,5.77,14.07,14.07,0,0,1-1.5,3.83,13.15,13.15,0,0,1-1.45,2q-1.82,2.12-3.81,4.07a20.64,20.64,0,0,0-3.26,4,40.14,40.14,0,0,0-4.37,9.1,45,45,0,0,1-1.83,4.58c-.38.87-.89,1.68-1.31,2.53-.24.48-.3.61-.24,1,0,.15.05.32.09.56l-7.18,4.19c-.16-.1-.35-.18-.51-.29l-.13-.12a10.57,10.57,0,0,0-4.81-2.72c-2.26-.75-4.53-1.48-6.84-2a26.12,26.12,0,0,0-4.75-.57c-2-.09-4,0-6-.07a25.78,25.78,0,0,0-12.81,2.85l-2.41-.2a3.36,3.36,0,0,1-1.66-.69l-1.37-.92c-.87-.59-1.75-1.17-2.65-1.7a27.66,27.66,0,0,0-9.22-3.37,7.47,7.47,0,0,0-2.06,0c-1.6.15-3.18.35-4.85.54,0-.3-.1-.59-.1-.87a31.61,31.61,0,0,1,.73-6.43c.78-3.59,1.45-7.2,2.13-10.81,1.11-5.9,1.87-11.87,3.11-17.74.53-2.5,1-5,1.38-7.53a41.76,41.76,0,0,0,.5-7c0-1,.17-2,.08-3.09a12.44,12.44,0,0,0-1-3.87c-.79-1.83-1.64-3.63-2.51-5.42a18,18,0,0,0-1.13-1.88c-.88-1.34-1.83-2.64-2.64-4a13.43,13.43,0,0,1-2-5,7.48,7.48,0,0,1,.29-3.83,21.32,21.32,0,0,0,1.25-4c.36-2,1.17-3.78,1.68-5.69s1-3.84,1.61-5.74c1.76-5.66,3.07-11.43,4.48-17.18a77,77,0,0,0,1.81-10.33c.31-2.92.8-5.82,1.17-8.73.25-2.06.42-4.12.63-6.18.23-2.28.45-4.55.67-6.83,0-.3,0-.6,0-.91.08-1.59.16-3.18.24-4.86l.82-.11c.23,0,.45-.05.67-.09a1.53,1.53,0,0,1,.45,1.29c0,2.47,0,4.93-.23,7.4-.13,1.2,0,2.43-.12,3.63-.23,2.32-.57,4.63-.83,7s-.5,4.46-.72,6.69-.47,4.55-.65,6.83c-.16,2-.27,4.06-.4,6.09-.05.77-.16,1.54-.15,2.32a26.72,26.72,0,0,0,.27,4.91,10,10,0,0,0,2.83,5.26c1.85.17,3.65.43,5.46.46,3.37.08,6.75.25,10.07-.65,2.08-.56,4.21-1,6.3-1.55a69.7,69.7,0,0,0,11.16-4.17c2.7-1.27,5.41-2.52,8.13-3.73,1.07-.47,2.19-.8,3.28-1.23.72-.28,1.43-.61,2.11-.92a5.74,5.74,0,0,0,.62-3.42c-.25-1.75-.22-3.54-.32-5.3-.19-3.32-.31-6.65-.62-10a38.12,38.12,0,0,0-1.06-5.6c-1-3.87-1.66-7.77-2.23-11.71-.12-.9-.25-1.79-.37-2.66a2,2,0,0,1,1.76-.11,14.62,14.62,0,0,1,.33,1.7,51.72,51.72,0,0,0,2.35,10.22c1.08,3.47,2.22,6.92,3.37,10.37.44,1.31,1,2.57,1.48,3.89a41.73,41.73,0,0,1,1.15,4.11c.65,2.91,1.17,5.85,1.85,8.75s1.56,5.94,2.29,8.91c.41,1.72.69,3.48,1,5.21.67,3.48,1.26,7,2,10.44.55,2.41,1.32,4.79,2.06,7.17,1.62,5.16,3.28,10.3,4.93,15.45a13.22,13.22,0,0,0,.53,1.28,23,23,0,0,0,5.47-.51C335,162.36,336.24,165.14,337.54,167.9Zm-33.2-4.2c-.21-.52-.6-.43-.93-.45-2.68-.1-5.36-.22-8.05-.28-4.29-.1-8.57.12-12.85.41-4.62.32-9.25.63-13.82,1.39-2.51.43-5,1-7.49,1.58-.31.07-.59.18-.51.7a8.24,8.24,0,0,0,1-.07c2-.38,4.07-.84,6.12-1.13,5.84-.8,11.71-1.27,17.6-1.57,5.23-.27,10.47-.4,15.71-.3.87,0,1.74,0,2.6,0A2.14,2.14,0,0,0,304.34,163.7Zm-13.62,3.87c.09,0,.16-.18.41-.47-.53,0-.87-.12-1.2-.12l-8.69.05a3,3,0,0,0-.9.1c-.17.06-.28.3-.59.66.68,0,1.1.05,1.51.05l8.69-.19A3.94,3.94,0,0,0,290.72,167.57Z"/><path class="cls-1" d="M331.52,298.83a44.7,44.7,0,0,1,.62,6.83,3.82,3.82,0,0,1-.06.9,42.26,42.26,0,0,1-3,8.28,34.64,34.64,0,0,1-8.27,10.4c-1,.91-2,1.86-3.07,2.79-.35.32-.72.61-1.06.9l-.53-.14a1.08,1.08,0,0,0-.2.16,5,5,0,0,1-2.35,1.76A18.24,18.24,0,0,1,309,332a32.9,32.9,0,0,0-7.21,2.09c-2.17.85-4.37,1.62-6.56,2.43l-.39-.41c-.08,0-.19,0-.23.11a1.63,1.63,0,0,1-1,.79c-4.43,1.57-8.42,4-12.54,6.24-4.29,2.33-8.56,4.71-12.86,7-1.22.65-2.49,1.21-3.77,1.75a11,11,0,0,1-4.06.72q-2.73,0-5.46,0c-4.2,0-8.4-.07-12.6-.15a16.75,16.75,0,0,1-7.75-1.87c-3.44-1.84-7.11-3.16-10.68-4.69a66.13,66.13,0,0,1-11-5.83c-1.39-.94-2.66-2.07-4-3.11l-6.75-5.27a18.64,18.64,0,0,1-4.92-5.79c-1.61-2.92-3.22-5.84-4.78-8.78-1.83-3.49-3.55-7-5.42-10.51a23.52,23.52,0,0,0-2.69-3.95,8.47,8.47,0,0,1-1.94-4.72,76.56,76.56,0,0,0-2.15-11.84,16,16,0,0,1-.18-6.16A48,48,0,0,1,183.73,267a29.73,29.73,0,0,1,4.69-7.89,42.39,42.39,0,0,1,4.48-4.51,7.75,7.75,0,0,1,1.14-.8c.67-.39,1.4-.73,2.09-1.11a40.28,40.28,0,0,0,5.8-3.68,24.87,24.87,0,0,1,5.51-3.15c2.54-1.11,5-2.29,7.6-3.33,3-1.25,6.12-2.4,9.19-3.56,1.25-.47,2.54-.86,3.81-1.29a38.82,38.82,0,0,1,9.68-1.73c1.89-.12,3.79-.17,5.7-.27a71.94,71.94,0,0,0,11.33-1.16,29.1,29.1,0,0,0,6-2.11,60.64,60.64,0,0,0,7.62-4.18,26.59,26.59,0,0,1,11-4.07,33.61,33.61,0,0,1,3.76-.08c1.68,0,3.37,0,5.07,0a26.85,26.85,0,0,1,6.68.75,59.18,59.18,0,0,1,7.92,2.5,6.76,6.76,0,0,1,2.53,1.71c.11.11.21.23.31.35l-9,5.24c-1.16-.73-2.34-1.43-3.48-2.2a10.48,10.48,0,0,0-6.34-2c-1.12.05-2.25.13-3.36.26a5.69,5.69,0,0,1-2.69-.13,6.68,6.68,0,0,0-6,.84c-1.88,1.14-3.73,2.31-5.6,3.47a3.1,3.1,0,0,1-.57.3,98.8,98.8,0,0,1-11.95,3.93c-3.31.88-6.72,1.23-10.07,1.85-2.34.43-4.67.92-7,1.3-2.94.48-5.91.84-8.85,1.3-2,.31-3.92.69-5.87,1.06a6.11,6.11,0,0,0-2,.86c-1.33.8-2.69,1.58-4.08,2.27-2.91,1.43-5.82,2.87-8.79,4.18a25.72,25.72,0,0,1-4.3,1.4,11.06,11.06,0,0,0-4.58,2.35c-3.11,2.68-6.27,5.31-9.28,8.11l-.09.08a10.22,10.22,0,0,0-3.26,4.9c-.25,1-.42,2-.58,3.05a49.45,49.45,0,0,1-1.28,6.61,4.53,4.53,0,0,0,.24,2.81,24.42,24.42,0,0,1,.76,2.48,20.55,20.55,0,0,1,.45,2.81c.15,1.63.19,3.28.36,4.91.22,2.06.53,4.11.8,6.16a6.38,6.38,0,0,1,.41,3.66,11.49,11.49,0,0,0,2,7c.84,1.3,1.7,2.6,2.58,3.88a10.29,10.29,0,0,0,2.58,2.72,14.11,14.11,0,0,0,2.42,1.23c1,.41,2,.74,3,1.1.1.21.13.24.13.28A4.35,4.35,0,0,0,205,322a36.25,36.25,0,0,0,6.06,2.52v-4.33l.18-.05c.07.17.21.32.21.49,0,1.34,0,2.68,0,4.06l1.2.63a55,55,0,0,1,6.65,4.29,20.17,20.17,0,0,0,5.17,2.68,104,104,0,0,1,14.62,6.35,32.71,32.71,0,0,0,9.48,3,26,26,0,0,0,7.62.28c.39-.05.79,0,1.17,0a8.57,8.57,0,0,0,4.1-1.46,18.53,18.53,0,0,0,3.51-3,2.51,2.51,0,0,1,2.3-1.2.59.59,0,0,0,.25-.07c2-.95,4.23-1.24,6.12-2.42.91-.58,1.84-1.14,2.72-1.77a72.38,72.38,0,0,1,7.69-5.07,33.17,33.17,0,0,1,3.86-1.83,39.59,39.59,0,0,0,6-3.06,20.18,20.18,0,0,1,4.44-1.95l.67-.19.28.55.61-.78c.5-.12,1.08-.27,1.68-.38a25,25,0,0,0,5.88-2c1.89-.86,3.8-1.68,5.73-2.43a5.4,5.4,0,0,0,1.92-.95,3.27,3.27,0,0,0,.44-.47,59.36,59.36,0,0,0,3.91-6,23.32,23.32,0,0,0,2.8-9.62,32.37,32.37,0,0,0-1-9.9,47.37,47.37,0,0,1-1.61-9.31,51.14,51.14,0,0,1,0-6.19,37.88,37.88,0,0,0-.17-6.48c-.08-.65-.07-1.3-.1-1.95-.09-1.81-.15-3.63-.28-5.43-.12-1.59-.32-3.18-.51-4.76a5.78,5.78,0,0,0-1.24-3c-.43-.54-.83-1.1-1.27-1.7a13.77,13.77,0,0,0-.85-8.17,18,18,0,0,1,1.81,1,12,12,0,0,1,2.39,2.07,34.73,34.73,0,0,1,3.89,5.82,88.34,88.34,0,0,1,4.23,8.63,17.23,17.23,0,0,1,1.55,7.56c-.06,1.64,0,3.29,0,4.94a66,66,0,0,0,1.32,13.66c.41,2,.65,4,.91,6a7.36,7.36,0,0,1-.15,1.67A27.42,27.42,0,0,0,331.52,298.83Z"/><path class="cls-1" d="M331,113.86c.23.45,0,.72-.16,1-2.17,5.19-4.38,10.37-6.53,15.57a22.22,22.22,0,0,0-1.88,5.92c-.09.85-.16,1.71-.24,2.57a13.8,13.8,0,0,1,1.21-7.6c.92-2.05,1.67-4.18,2.56-6.24,1.44-3.35,2.93-6.66,4.41-10C330.54,114.7,330.76,114.32,331,113.86Z"/><path d="M329.55,197l.52.31a30.51,30.51,0,0,1-4.05,5.49A40.74,40.74,0,0,0,318.36,215c-.67,1.6-1.31,3.2-2.07,4.75-.59,1.21-1.33,2.33-2,3.49a1.94,1.94,0,0,0-.39,1h-.61c-.06-.37,0-.5.24-1,.42-.85.93-1.66,1.31-2.53a45,45,0,0,0,1.83-4.58,40.14,40.14,0,0,1,4.37-9.1,20.64,20.64,0,0,1,3.26-4q2-2,3.81-4.07A13.15,13.15,0,0,0,329.55,197Z"/><path class="cls-1" d="M325.63,101.12a71.61,71.61,0,0,1-.36,7.89c-.12,1.77-.24,3.54-.4,5.31a22.86,22.86,0,0,1-2.33,8.78c.07-.24.11-.49.18-.73a54.71,54.71,0,0,0,1.94-11.21c.46-4.57.47-9.15.54-13.74a.83.83,0,0,1,.15-.5C325.45,98.32,325.57,99.72,325.63,101.12Z"/><path d="M322.75,218.15a6.8,6.8,0,0,1,.13,3.71,10.06,10.06,0,0,1-3.34,5.29,4,4,0,0,1-2.47,1.3,4.5,4.5,0,0,0-2.28.8c-1.09.62-2.18,1.24-3.26,1.88l-.88.54-.9.56.6.94.89,1.32-.53.36c-.51-.76-1-1.52-1.57-2.3l-8.54,5c.29.47.52.88.78,1.27a4.49,4.49,0,0,1,.85,2.93c-.09,1.07-.17,2.15-.17,3.23,0,3.11-.14,6.22.11,9.34a68.63,68.63,0,0,0,1,7.44,15.86,15.86,0,0,1,.29,6c-.47,2.5-1,5-1.51,7.49a46,46,0,0,1-2.83,8.89,27.86,27.86,0,0,0-1.85,5.53c-.38,1.69-.73,3.39-1.22,5a73.65,73.65,0,0,1-4.6,10.87,28,28,0,0,0-2.7,9.81c-.12,1.29-.16,2.58-.28,3.87a12.06,12.06,0,0,1-1,4.15l-.36-.16a5.79,5.79,0,0,0,.53-1.88c.18-1.84.39-3.69.47-5.54a25.75,25.75,0,0,1,2.16-9.43c1.22-2.77,2.44-5.55,3.64-8.33a35,35,0,0,0,2.27-7.56,27.38,27.38,0,0,1,1.87-6.2c.49-1.1.94-2.23,1.34-3.38a81.75,81.75,0,0,0,3-12.46,12.7,12.7,0,0,0,.27-4.26c-.2-1.23-.43-2.46-.61-3.7-.31-2.14-.69-4.27-.84-6.42s-.06-4.16,0-6.24c0-1.2.17-2.4.26-3.54a4.41,4.41,0,0,0-2.88-1.53,13.21,13.21,0,0,0-6-.08,1.67,1.67,0,0,1-.39.05,3.49,3.49,0,0,0-1.45.5c-2.79,1.65-5.6,3.27-8.41,4.9-.25.15-.47.35-.7.52.05.23.07.4.12.56,1,3.76,2,7.52,3,11.26a20.2,20.2,0,0,1,.71,5.77c0,1.43-.16,2.86-.14,4.28a13.14,13.14,0,0,1-2.27,7.46,32.68,32.68,0,0,0-1.93,3.35,7.85,7.85,0,0,1-2.58,3c-1.63,1.13-3.31,2.21-4.94,3.34-1.26.87-2.86.95-4.1,1.83-1.09-.23-1.88.5-2.76.88a25.41,25.41,0,0,0-5.33,3.44,60.7,60.7,0,0,1-8.48,5.74,6.51,6.51,0,0,0-1.5,1,3.58,3.58,0,0,1-2.06,1,15.9,15.9,0,0,0-4.09,1.21l-3.28,1.46-.21-.43c1-.49,2-1,3-1.4.7-.33,1.41-.63,2.14-.89a15.21,15.21,0,0,1,2.51-.67,3,3,0,0,0,1.69-.87,8.14,8.14,0,0,1,1.48-1c1.61-1,3.25-2,4.81-3.07,1.35-.94,2.62-2,3.91-3a26.13,26.13,0,0,1,5.69-3.59l2-.88c-.1-.78-.16-1.51-.28-2.22a8.62,8.62,0,0,1,.15-3.85c.3-1.09.62-2.16.93-3.25s.53-2,.88-3.26c-.31.42-.46.58-.56.76-1.38,2.36-2.78,4.69-4.09,7.08a28,28,0,0,1-5.14,7,42.68,42.68,0,0,1-7.3,5.59c-1.85,1.13-3.71,2.23-5.5,3.44a8.3,8.3,0,0,1-1.58.84,7.57,7.57,0,0,1-3.83.49,29.64,29.64,0,0,0-3.68-.27v-.5c1.16,0,2.32,0,3.47.06a8.22,8.22,0,0,0,5.53-1.43c1.45-1,3-1.93,4.46-2.91s3-2,4.38-3a28.1,28.1,0,0,0,8.3-9.5c1-1.92,2.06-3.82,3.24-5.62a21.52,21.52,0,0,0,3.53-12.15c0-.9-.1-1.8-.16-2.71-.12-1.46-.21-2.93-.37-4.38-.13-1.23-.33-2.45-.52-3.82l-8.48,4.94c0,1.59,0,3,0,4.35a12.78,12.78,0,0,1-.7,4.34c-.5,1.56-1,3.11-1.46,4.7a22.12,22.12,0,0,1-2.24,5.37,24.43,24.43,0,0,1-12,10.23,43.71,43.71,0,0,1-4.94,1.58c-3.41,1-2.4,1.21-5.9-.34a15.27,15.27,0,0,1-5-3c-1.15-1.16-2.2-2.42-3.27-3.67a5,5,0,0,1-1-2.22,19.2,19.2,0,0,1-.09-8.23,11.73,11.73,0,0,0,0-3.74,20.44,20.44,0,0,1-.18-2.71,6.8,6.8,0,0,1,1.28-3.76,16.23,16.23,0,0,1,2.86-3.17c1.06-.88,2.06-1.84,3.09-2.77,1.37-1.25,2.74-2.51,4.14-3.74a17.24,17.24,0,0,1,10.94-4.15c1.66-.08,2,.26,2.42,1.85.54,2.14,1.1,4.28,1.73,6.38a3.94,3.94,0,0,1-.09,3.14c0,.05.05.16.1.28l9.12-5.31c-.58-1.75-1.07-3.46-1.71-5.11a21.19,21.19,0,0,0-1.71-3.48,9.35,9.35,0,0,0-4.92-4.05c-.93-.34-1.93-.48-2.87-.77a4.88,4.88,0,0,0-2.43-.1c-3.66.69-7.32,1.33-11,2l-2.35.45c-1.12.93-2,1.78-3,2.52-2.4,1.78-4.83,3.5-7.25,5.26a8.61,8.61,0,0,0-1.08.92q-.87.87-1.68,1.8a20.44,20.44,0,0,0-3.46,5,17.92,17.92,0,0,1-1.41,2.63,9.53,9.53,0,0,0-1.52,4.63,46.38,46.38,0,0,0-.12,5.65l-.54,0c-.05-1.57-.28-3.16-.19-4.72a11.86,11.86,0,0,1,1.73-6.17,9.06,9.06,0,0,0,.86-1.59,21,21,0,0,1,4-6,14.57,14.57,0,0,1,4.2-3.61,14.69,14.69,0,0,0,1.82-1.25q2.88-2.09,5.76-4.2c.26-.19.49-.42.95-.83l-6.16,1a14.68,14.68,0,0,0-4.85,1.69c-3.55,2-7.2,3.76-11.08,5.76-.23.57-.6,1.4-.92,2.24l-.65-.25.62-1.64c-1.9.53-3.77,1.07-5.66,1.56a5.84,5.84,0,0,0-2.05.94c-.19.61-.4,1.22-.64,1.8l-.52-.21a2.42,2.42,0,0,0,.11-.66,3,3,0,0,0-.44.24c-3,2.55-6,5.08-9,7.68l-.38-.41c3-2.8,6.17-5.43,9.28-8.11a11.06,11.06,0,0,1,4.58-2.35A25.72,25.72,0,0,0,210,252c3-1.31,5.88-2.75,8.79-4.18,1.39-.69,2.75-1.47,4.08-2.27a6.11,6.11,0,0,1,2-.86c2-.37,3.91-.75,5.87-1.06,2.94-.46,5.91-.82,8.85-1.3,2.35-.38,4.68-.87,7-1.3,3.35-.62,6.76-1,10.07-1.85a98.8,98.8,0,0,0,11.95-3.93,3.1,3.1,0,0,0,.57-.3c1.87-1.16,3.72-2.33,5.6-3.47a6.68,6.68,0,0,1,6-.84,5.69,5.69,0,0,0,2.69.13c1.11-.13,2.24-.21,3.36-.26a10.48,10.48,0,0,1,6.34,2c1.14.77,2.32,1.47,3.48,2.2l9-5.24c-.1-.12-.2-.24-.31-.35l.39-.28c.16.11.35.19.51.29l7.18-4.19c0-.24-.08-.41-.09-.56h.61l1.35.17,6.68-4.76A2,2,0,0,1,322.75,218.15Zm-29.51,18.37a11.64,11.64,0,0,0,2.6-1.56l-4-2.34c-2.65-1.56-5.46-1.61-8.51-.92a24.85,24.85,0,0,1,2.31,1.82,22.69,22.69,0,0,1,1.77,2.23c1.7.28,3.32.55,4.93.8A1.7,1.7,0,0,0,293.24,236.52Zm-4.93,2.74c-.53-.93-1.09-1.86-1.58-2.81a12.55,12.55,0,0,0-4.22-4.32,4.41,4.41,0,0,0-1.31-.51c-.36-.12-.76-.16-1.12-.29a4.68,4.68,0,0,0-3.89.31c-1.79.94-3.54,1.94-5.43,3a10.24,10.24,0,0,1,4.48,3c.72.8,1.43,1.62,2.08,2.48,1,1.31,2,2.63,1.77,4.56A87.89,87.89,0,0,0,288.31,239.26Zm-5.11,31.86a69.63,69.63,0,0,0-.1-9.47,66.2,66.2,0,0,0-1.72-9.69c-.22-.9-.53-1.77-.83-2.76l-7.65,4.48c.2.93.41,1.72.52,2.53s.15,1.63.21,2.45c.08,1.25.18,2.5.23,3.75a18.69,18.69,0,0,1-.18,4.78c-.35,1.6-.59,3.23-1,4.82-.74,2.89-1.51,5.77-2.37,8.63a14.41,14.41,0,0,0-.59,6.89,6.25,6.25,0,0,0,.21.72A8.38,8.38,0,0,0,273,287c1.72-1.09,3.43-2.2,5.1-3.36a6.29,6.29,0,0,0,2.22-2.64c.39-.87,1-1.65,1.4-2.49a5.38,5.38,0,0,0,.63-1.54A45.39,45.39,0,0,0,283.2,271.12Zm-4.92-25.83c.05-2,0-2.26-1-3.72a25.2,25.2,0,0,0-4.59-5.08,10.93,10.93,0,0,0-1.64-1,1.8,1.8,0,0,0-1.73,0c-1.09.51-2.22,1-3.33,1.43-.26.11-.52.25-.93.44l.67.34a4.94,4.94,0,0,1,2.45,2.56c.42,1,.75,2,1.1,3a5.47,5.47,0,0,0,.42,1.35,10.73,10.73,0,0,1,1.13,2.87c.19.52.36,1.05.57,1.69C273.84,248,276.06,246.58,278.28,245.29ZM270,250.14a58.91,58.91,0,0,0-2-8.09,6.1,6.1,0,0,0-3.81-4.26l-.25,0a87.89,87.89,0,0,1-12.61,3.37c.51.17.78.28,1.06.36a10.83,10.83,0,0,1,7.54,7.06,32.83,32.83,0,0,1,1.49,5.23,11,11,0,0,0,.35,1.15Zm-8.91,18.25a19,19,0,0,0,.9-8.11c-.23,0-.32,0-.39,0-3.78,2.18-7.59,4.33-11.33,6.59a3.45,3.45,0,0,0-.76.61l-.82,0,.11-.08c-.28,0-.42-.08-.51,0l-10.53,5.12-.38-.09a17.68,17.68,0,0,1,1.32-3.41,3.55,3.55,0,0,1,1.81-1.75c1.45-.67,2.81-1.52,4.2-2.31a1.79,1.79,0,0,0,.91-1.2c.24-1,.56-1.91.74-2.89a4.58,4.58,0,0,0-.71-3.58,2,2,0,0,0-2.22-.94,5.57,5.57,0,0,0-1.25.36c-2,.86-4.09,1.66-6,2.65a29.25,29.25,0,0,0-7.09,5,5.21,5.21,0,0,0-1.7,3.39c-.17,1.9-.36,3.79-.64,5.66a18.83,18.83,0,0,0,.17,7.33,4.71,4.71,0,0,0,.71,1.79,32.52,32.52,0,0,0,3.31,3.81c2,1.85,4.49,2.73,6.92,3.76a1.9,1.9,0,0,0,1.13,0c1.42-.37,2.82-.82,4.24-1.2a24.83,24.83,0,0,0,8.21-4.06,21.57,21.57,0,0,0,8.2-11.67C260,271.51,260.44,269.91,261.05,268.39Zm-15.31-3.73a18.23,18.23,0,0,0,5-3.11A20.32,20.32,0,0,0,245.74,264.66Z"/><path d="M321.32,287.93a32.37,32.37,0,0,1,1,9.9,23.32,23.32,0,0,1-2.8,9.62,59.36,59.36,0,0,1-3.91,6,3.27,3.27,0,0,1-.44.47,5.4,5.4,0,0,1-1.92.95c-1.93.75-3.84,1.57-5.73,2.43a25,25,0,0,1-5.88,2c-.6.11-1.18.26-1.68.38l-.61.78-.28-.55-.67.19-.18-.7c.5-.14,1-.26,1.54-.37.19-.46.36-.86.51-1.26.92-2.43,1.83-4.86,2.76-7.28a41.08,41.08,0,0,1,3.67-7.58A62.87,62.87,0,0,0,311,295a30,30,0,0,0,2.67-8.64c.43-3.34.7-6.69,1.08-10,.3-2.61.66-5.22,1-7.84.19-1.45.39-2.9.55-4.36a16.35,16.35,0,0,0-.14-3.35c-.18-1.93-.18-3.89-.29-5.83a28.51,28.51,0,0,0-.34-3.47,9.19,9.19,0,0,1-.08-3.22,11.86,11.86,0,0,0-1.19-7.56c-.67-1.19-1.29-2.42-2-3.58-.48-.76-1-1.51-1.5-2.27l.53-.36c.89,1.32,1.78,2.63,2.62,4a5.85,5.85,0,0,0,1.87,1.93l1.32.84.38.24-.37.53a18,18,0,0,0-1.81-1,13.77,13.77,0,0,1,.85,8.17c.44.6.84,1.16,1.27,1.7a5.78,5.78,0,0,1,1.24,3c.19,1.58.39,3.17.51,4.76.13,1.8.19,3.62.28,5.43,0,.65,0,1.3.1,1.95a37.88,37.88,0,0,1,.17,6.48,51.14,51.14,0,0,0,0,6.19A47.37,47.37,0,0,0,321.32,287.93Z"/><path d="M316.43,25.3a3.82,3.82,0,0,1,.74,2.43,16.42,16.42,0,0,1-1.52,6.66,2.9,2.9,0,0,0-.27,1.89,16.59,16.59,0,0,1,.36,5.16,27.48,27.48,0,0,1-.61,3c0-.12,0-.24-.05-.36.09-.61.21-1.27.29-1.62a13.79,13.79,0,0,0-.21-5.28,5.81,5.81,0,0,1,.35-3.53,14.34,14.34,0,0,0,1.14-5.95,3.23,3.23,0,0,0-.62-1.94c-.57-.82-1.1-1.66-1.62-2.51a4.11,4.11,0,0,1-.56-3.36,3.74,3.74,0,0,0-.33-2.78,45.27,45.27,0,0,0-4.63-7.51,13.29,13.29,0,0,0-1.14-1.24,19.31,19.31,0,0,1-2.68-3.17,5.87,5.87,0,0,0-1.52-1.58A15.57,15.57,0,0,0,295.42.81a7.39,7.39,0,0,0-1.56.08,16.57,16.57,0,0,1-6.58-.17,6,6,0,0,0-2.95.11,37.14,37.14,0,0,0-6.95,2.49,5.41,5.41,0,0,1-3.17.53,7.49,7.49,0,0,0-4.6,1.1c-1,.61-2.06,1.27-3.09,1.91a5.47,5.47,0,0,0-1.75,1.89,12.08,12.08,0,0,1-3.5,3.62,17.44,17.44,0,0,0-4.44,4.3l-.09.13.33-.61a1.71,1.71,0,0,1,.22-.54,8,8,0,0,1,2-2.33c.6-.5,1.23-1,1.85-1.43a11.27,11.27,0,0,0,3.16-3.4A6.57,6.57,0,0,1,266.7,6.1c1-.63,2.05-1.3,3.12-1.87a7,7,0,0,1,4.25-.9,5.73,5.73,0,0,0,3.27-.62A41.33,41.33,0,0,1,284.57.18a5.77,5.77,0,0,1,2.83,0,14.78,14.78,0,0,0,6.07.12,11.31,11.31,0,0,1,5.14.33A19.26,19.26,0,0,1,303,2.45,7.4,7.4,0,0,1,305.77,5a15.14,15.14,0,0,0,2.56,3.1,10.93,10.93,0,0,1,1.44,1.67,54.61,54.61,0,0,1,4.28,7.12,4.14,4.14,0,0,1,.39,3.14,3.46,3.46,0,0,0,.41,2.75A28.86,28.86,0,0,0,316.43,25.3Z"/><path class="cls-1" d="M316.65,27.66a14.34,14.34,0,0,1-1.14,5.95,5.81,5.81,0,0,0-.35,3.53,13.79,13.79,0,0,1,.21,5.28c-.08.35-.2,1-.29,1.62a1.7,1.7,0,0,0-.11.6c0,.9-.18,1.75-.18,2.66a3.8,3.8,0,0,1-1.91,3.46,6.88,6.88,0,0,1-4.86,1c-.68-.11-1.35-.27-2-.45a7.42,7.42,0,0,1-3.48-1.93c-1.15-1.17-2.27-2.38-3.4-3.58-.49-.52-.95-1.07-1.6-1.81,3.38.3,6.15-.34,8-3.14a7.33,7.33,0,0,0-1.29.94,6.71,6.71,0,0,1-4.52,1.72,15.57,15.57,0,0,1-3-.21,17.51,17.51,0,0,1-2.81-.78,11.52,11.52,0,0,1-4.49-2.77,9.29,9.29,0,0,0-3.21-2.18c-.22-.09-.41-.23-.59-.32a18.89,18.89,0,0,0,.88-1.84,3.75,3.75,0,0,0-.61-3.9c-.11-.14-.24-.38-.52-.14a4.2,4.2,0,0,1,0,5,3.62,3.62,0,0,1-3.32,1.71c.45-.53.89-1.06,1.34-1.57a2.5,2.5,0,0,0,.55-2.66,4.4,4.4,0,0,0-3.33-3,6,6,0,0,0-6.08,2.86,3,3,0,0,0-.35,2.13.58.58,0,0,0,.05.14l-1.36.5c-1,.18-1.76.34-2.52.42a3.5,3.5,0,0,1-3.82-2.26c-.32-.75-.52-1.55-.78-2.33-.09-.25-.19-.49-.4-1a7.2,7.2,0,0,0,.72,3.79,3.81,3.81,0,0,0,2.38,2.13l-.54.57a10.69,10.69,0,0,1-8.81-4c-.13-.53-.26-1.1-.41-1.76a2.75,2.75,0,0,0,.94,3.17,11.94,11.94,0,0,0,4.3,2.59,4.6,4.6,0,0,1,.61.34c-1.19.51-2.08,1.32-3.36,1.25a8.12,8.12,0,0,1-3.44-.47c-1-.52-1.94-1.18-2.9-1.79a5.35,5.35,0,0,0,2.88,2.4,9.47,9.47,0,0,0,4.33.3l.12,1a13.45,13.45,0,0,0-2.51,1.9,2.84,2.84,0,0,0-.73,1.06c-.46,1.19-.55,2.48-1.14,3.67a10.73,10.73,0,0,0-.51,2.52c-.07.37-.2.73-.3,1.08a3.17,3.17,0,0,1-2.6-2.63,20.2,20.2,0,0,1-.21-2.32c-.07-1.08-.1-2.15-.14-3.18-.79-.57-1.53-1.09-2.26-1.64a4.83,4.83,0,0,1-2.07-3.6c-.09-1.2-.13-2.41-.23-3.62a15.5,15.5,0,0,0-.29-2,5.15,5.15,0,0,1-.09-1.92,17.77,17.77,0,0,1,1.07-4,9.51,9.51,0,0,1,.68-1.25,15.18,15.18,0,0,1,1-1.49,19.78,19.78,0,0,1,1.93-2.24c.88-.82,1.87-1.52,2.8-2.25.13-.78.25-1.56.37-2.35l0,0,0,0s0,0,0,.05a1.29,1.29,0,0,0-.17.16,17.44,17.44,0,0,1,4.44-4.3,12.08,12.08,0,0,0,3.5-3.62,5.47,5.47,0,0,1,1.75-1.89c1-.64,2.05-1.3,3.09-1.91a7.49,7.49,0,0,1,4.6-1.1,5.41,5.41,0,0,0,3.17-.53A37.14,37.14,0,0,1,284.33.83a6,6,0,0,1,2.95-.11,16.57,16.57,0,0,0,6.58.17,7.39,7.39,0,0,1,1.56-.08,15.57,15.57,0,0,1,8.13,2.76,5.87,5.87,0,0,1,1.52,1.58,19.31,19.31,0,0,0,2.68,3.17,13.29,13.29,0,0,1,1.14,1.24,45.27,45.27,0,0,1,4.63,7.51,3.74,3.74,0,0,1,.33,2.78,4.11,4.11,0,0,0,.56,3.36c.52.85,1,1.69,1.62,2.51A3.23,3.23,0,0,1,316.65,27.66Z"/><path class="cls-1" d="M316.13,260.78a16.35,16.35,0,0,1,.14,3.35c-.16,1.46-.36,2.91-.55,4.36-.33,2.62-.69,5.23-1,7.84-.38,3.35-.65,6.7-1.08,10A30,30,0,0,1,311,295a62.87,62.87,0,0,1-4.32,7.84,41.08,41.08,0,0,0-3.67,7.58c-.93,2.42-1.84,4.85-2.76,7.28-.15.4-.32.8-.51,1.26-.53.11-1,.23-1.54.37a20.13,20.13,0,0,0-4.52,1.84c-1,.53-1.85,1.13-2.82,1.62s-2.12,1-3.19,1.43a1.44,1.44,0,0,1-.46,0,6.05,6.05,0,0,1,.24-.63.94.94,0,0,0,.1-.23,12.06,12.06,0,0,0,1-4.15c.12-1.29.16-2.58.28-3.87a28,28,0,0,1,2.7-9.81,73.65,73.65,0,0,0,4.6-10.87c.49-1.64.84-3.34,1.22-5a27.86,27.86,0,0,1,1.85-5.53,46,46,0,0,0,2.83-8.89c.55-2.48,1-5,1.51-7.49a15.86,15.86,0,0,0-.29-6,68.63,68.63,0,0,1-1-7.44c-.25-3.12-.11-6.23-.11-9.34,0-1.08.08-2.16.17-3.23a4.49,4.49,0,0,0-.85-2.93c-.26-.39-.49-.8-.78-1.27l8.54-5c.53.78,1.06,1.54,1.57,2.3s1,1.51,1.5,2.27c.73,1.16,1.35,2.39,2,3.58a11.86,11.86,0,0,1,1.19,7.56,9.19,9.19,0,0,0,.08,3.22,28.51,28.51,0,0,1,.34,3.47C316,256.89,316,258.85,316.13,260.78Z"/><path d="M315.13,44.4a11.12,11.12,0,0,1-.14,4.75,3.13,3.13,0,0,1-1.28,1.74,7.45,7.45,0,0,0-2,2.21c-1.19,1.81-2.3,3.68-3.58,5.42s-2.56,3.16-3.85,4.74a2,2,0,0,1-1.36.66l-1.18.15c-.64,1.94-1.24,3.78-1.87,5.71.47.36.94.74,1.42,1.09a2.57,2.57,0,0,0,1.45.51,9.62,9.62,0,0,1,2.16.31l-.19.8a2,2,0,0,0-1.76.11c.12.87.25,1.76.37,2.66.57,3.94,1.27,7.84,2.23,11.71a38.12,38.12,0,0,1,1.06,5.6c.31,3.31.43,6.64.62,10,.1,1.76.07,3.55.32,5.3a5.74,5.74,0,0,1-.62,3.42c-.68.31-1.39.64-2.11.92-1.09.43-2.21.76-3.28,1.23-2.72,1.21-5.43,2.46-8.13,3.73a69.7,69.7,0,0,1-11.16,4.17c-2.09.57-4.22,1-6.3,1.55-3.32.9-6.7.73-10.07.65-1.81,0-3.61-.29-5.46-.46a10,10,0,0,1-2.83-5.26,26.72,26.72,0,0,1-.27-4.91c0-.78.1-1.55.15-2.32.13-2,.24-4.06.4-6.09.18-2.28.42-4.55.65-6.83s.46-4.46.72-6.69.6-4.63.83-7c.12-1.2,0-2.43.12-3.63.25-2.47.22-4.93.23-7.4a1.53,1.53,0,0,0-.45-1.29c-.22,0-.44.06-.67.09l-.15-.63.65-.15c.2-.35,0-.78,0-1.18-.21-1.72-.43-3.42-.65-5.14-.12-1-.21-2-.37-2.95a4.84,4.84,0,0,0-.7-1.78,13.41,13.41,0,0,1-2.31-7.7c0-.22,0-.43,0-.65a1.85,1.85,0,0,0-.28-.28,4.61,4.61,0,0,1-1.87-4.19c.06-1.2,0-2.42,0-3.79a20.53,20.53,0,0,0-1.78-1.3,5.63,5.63,0,0,1-2.91-5.16c0-1.16-.1-2.33-.17-3.49a2.82,2.82,0,0,0-.13-.77,5.7,5.7,0,0,1-.16-3.17A14.73,14.73,0,0,1,256,18.79a3,3,0,0,0,.43-.3c.18-.51.06-1.11.3-1.6h0v0l.13-.2a1.29,1.29,0,0,1,.17-.16c-.12.79-.24,1.57-.37,2.35-.93.73-1.92,1.43-2.8,2.25a19.78,19.78,0,0,0-1.93,2.24,15.18,15.18,0,0,0-1,1.49,9.51,9.51,0,0,0-.68,1.25,17.77,17.77,0,0,0-1.07,4,5.15,5.15,0,0,0,.09,1.92,15.5,15.5,0,0,1,.29,2c.1,1.21.14,2.42.23,3.62a4.83,4.83,0,0,0,2.07,3.6c.73.55,1.47,1.07,2.26,1.64,0,1,.07,2.1.14,3.18a20.2,20.2,0,0,0,.21,2.32A3.17,3.17,0,0,0,257,51c.1-.35.23-.71.3-1.08a10.73,10.73,0,0,1,.51-2.52c.59-1.19.68-2.48,1.14-3.67a2.84,2.84,0,0,1,.73-1.06,13.45,13.45,0,0,1,2.51-1.9,1.91,1.91,0,0,1-.24.62c-.52.58-1,1.16-1.61,1.7a3.58,3.58,0,0,0-1,1.65c-.33,1.21-.66,2.42-1,3.63a5.23,5.23,0,0,0-.15,1,35.38,35.38,0,0,0,.36,5.43c.2,1.45.39,2.91.49,4.37a78,78,0,0,0,1.41,10.65A19.06,19.06,0,0,0,262,74c.56,1.17,1.28,2.27,1.84,3.44a35,35,0,0,0,5.87,8,25.48,25.48,0,0,0,3.84,3.57l-.42.54-.42-.28a15.42,15.42,0,0,1-3.26-2.95,15.05,15.05,0,0,0-2-1.72c.36,2.08.69,4.33,1.15,6.55.27,1.31.77,2.57,1.09,3.86,1,3.86,1.47,7.81,2.08,11.73a76.55,76.55,0,0,0,1.85,9,20.18,20.18,0,0,0,1.43,3.88c1-2,2.49-3.45,3.78-5.07s3-3.14,4.38-4.76c2.24-2.57,4.39-5.23,6.52-7.9,1.64-2.06,3.2-4.2,4.77-6.31a8.18,8.18,0,0,0,.76-1.36c.3-.66.57-1.35.86-2a28.68,28.68,0,0,0,1.56-3.56c.83-2.87,1.57-5.77,2.25-8.68a13.95,13.95,0,0,0-.09-4.76,14.12,14.12,0,0,0-.51-2.89h-.28l-.81-.3,2.28-6.13c.28-.77.55-1.54.83-2.29a1.26,1.26,0,0,1,.4-.12,3.18,3.18,0,0,0,2.93-1.81,27.55,27.55,0,0,0,2.5-5.83c.22-.64.36-1.31.6-2.19-.5.28-.79.42-1.07.59a9.37,9.37,0,0,1-3.16,1.14,2.79,2.79,0,0,1-3-1.29,12.86,12.86,0,0,1-1-1.84c-.72-1.71-1.4-3.45-2.09-5.17A11.17,11.17,0,0,0,295.77,44c-1.23-.56-2.42-1.07-3.59-1.62A14.28,14.28,0,0,1,288.8,40a21.79,21.79,0,0,0-2.49-1.86,1.85,1.85,0,0,0-2.08,0,4.59,4.59,0,0,1-1.47.41,1.13,1.13,0,0,1-1.4-.7c.61-.61,1.22-1.15,1.74-1.76a2,2,0,0,0,.28-2.09,4.1,4.1,0,0,0-6-2.14,9.45,9.45,0,0,0-1.83,1.44,3,3,0,0,0-1,3.09c-.08-.13-.19-.27-.26-.41a.58.58,0,0,1-.05-.14,3,3,0,0,1,.35-2.13,6,6,0,0,1,6.08-2.86,4.4,4.4,0,0,1,3.33,3,2.5,2.5,0,0,1-.55,2.66c-.45.51-.89,1-1.34,1.57a3.62,3.62,0,0,0,3.32-1.71,4.2,4.2,0,0,0,0-5c.28-.24.41,0,.52.14a3.75,3.75,0,0,1,.61,3.9,18.89,18.89,0,0,1-.88,1.84c.18.09.37.23.59.32a9.29,9.29,0,0,1,3.21,2.18,11.52,11.52,0,0,0,4.49,2.77,17.51,17.51,0,0,0,2.81.78,15.57,15.57,0,0,0,3,.21,6.71,6.71,0,0,0,4.52-1.72,7.33,7.33,0,0,1,1.29-.94c-1.84,2.8-4.61,3.44-8,3.14.65.74,1.11,1.29,1.6,1.81,1.13,1.2,2.25,2.41,3.4,3.58A7.42,7.42,0,0,0,306,51.31c.68.18,1.35.34,2,.45a6.88,6.88,0,0,0,4.86-1,3.8,3.8,0,0,0,1.91-3.46c0-.91.21-1.76.18-2.66a1.7,1.7,0,0,1,.11-.6,8.49,8.49,0,0,0-.09,1C315,44.83,315.08,44.63,315.13,44.4Zm-3.61,7.65c-1,.43-2.23.05-3.1,1.07-.16.88-.28,1.87-.53,2.82s-.64,1.87-1,2.8C308,57.92,311.11,53.21,311.52,52.05Zm-3.18.47a2.76,2.76,0,0,0-.32-.17,6.59,6.59,0,0,0-.88-.2,10,10,0,0,1-6.2-3.46c-.91-1-1.78-2.11-2.67-3.16a3.85,3.85,0,0,0-1.38-1.23,2.83,2.83,0,0,0,.05.43c1.16,2.51,2.4,5,3.32,7.59a7.4,7.4,0,0,0,1,1.77,1.91,1.91,0,0,0,1.82.8A9.27,9.27,0,0,0,308.34,52.52Zm-50.1,6c-.31-2.38-.59-4.54-.88-6.75l-1.09.09a33.83,33.83,0,0,0,.57,3.42A8.68,8.68,0,0,0,258.24,58.54Z"/><path d="M315.08,44c0,.12,0,.24.05.36s-.1.43-.14.61A8.49,8.49,0,0,1,315.08,44Z"/><path class="cls-1" d="M308.42,53.12c.87-1,2.07-.64,3.1-1.07-.41,1.16-3.51,5.87-4.59,6.69.32-.93.71-1.84,1-2.8S308.26,54,308.42,53.12Z"/><path class="cls-1" d="M308,52.35a2.76,2.76,0,0,1,.32.17,9.27,9.27,0,0,1-5.22,2.37,1.91,1.91,0,0,1-1.82-.8,7.4,7.4,0,0,1-1-1.77c-.92-2.62-2.16-5.08-3.32-7.59a2.83,2.83,0,0,1-.05-.43,3.85,3.85,0,0,1,1.38,1.23c.89,1,1.76,2.12,2.67,3.16a10,10,0,0,0,6.2,3.46A6.59,6.59,0,0,1,308,52.35Z"/><path class="cls-1" d="M307.84,53.68c-.24.88-.38,1.55-.6,2.19a27.55,27.55,0,0,1-2.5,5.83,3.18,3.18,0,0,1-2.93,1.81,1.26,1.26,0,0,0-.4.12c-.28.75-.55,1.52-.83,2.29l-2.28,6.13c-.49,1.32-1,2.64-1.48,4a27,27,0,0,1-2.55,5.38,33.88,33.88,0,0,1-6.16,6.82,10.46,10.46,0,0,1-5.22,2.45,18.43,18.43,0,0,1-5,.24,6.48,6.48,0,0,1-2.69-.81c-.55-.32-1.08-.67-1.58-1a25.48,25.48,0,0,1-3.84-3.57,35,35,0,0,1-5.87-8c-.56-1.17-1.28-2.27-1.84-3.44a19.06,19.06,0,0,1-1.51-4.13,78,78,0,0,1-1.41-10.65c-.1-1.46-.29-2.92-.49-4.37a35.38,35.38,0,0,1-.36-5.43,5.23,5.23,0,0,1,.15-1c.32-1.21.65-2.42,1-3.63a3.58,3.58,0,0,1,1-1.65c.56-.54,1.09-1.12,1.61-1.7a1.91,1.91,0,0,0,.24-.62l-.12-1,.42-.05a2.39,2.39,0,0,0,.83-.34c.75-.41,1.5-.84,2.08-1.18.95-.05,1.75.28,2.53-.46l.54-.57a4,4,0,0,0,1.12.16,15.44,15.44,0,0,0,2.67-.42c.15,0,.29-.23.63-.51l1.36-.5c.07.14.18.28.26.41a3,3,0,0,1,1-3.09,9.45,9.45,0,0,1,1.83-1.44,4.1,4.1,0,0,1,6,2.14,2,2,0,0,1-.28,2.09c-.52.61-1.13,1.15-1.74,1.76a1.13,1.13,0,0,0,1.4.7,4.59,4.59,0,0,0,1.47-.41,1.85,1.85,0,0,1,2.08,0A21.79,21.79,0,0,1,288.8,40a14.28,14.28,0,0,0,3.38,2.39c1.17.55,2.36,1.06,3.59,1.62a11.17,11.17,0,0,1,1.77,3.09c.69,1.72,1.37,3.46,2.09,5.17a12.86,12.86,0,0,0,1,1.84,2.79,2.79,0,0,0,3,1.29,9.37,9.37,0,0,0,3.16-1.14C307.05,54.1,307.34,54,307.84,53.68Zm-12.59,6.53h-1.56C294.66,60.74,294.66,60.74,295.25,60.21Zm-1.44-.87c.81-.23.81-.23,1.57-1.15A3,3,0,0,0,293.81,59.34Zm-.29-4.16.2-.19c-.12-.14-.22-.36-.38-.43-1.27-.55-2.53-1.14-3.83-1.58a4.42,4.42,0,0,0-2.55-.09,11.77,11.77,0,0,1-3.83.3c-.12.22-.26.47-.47.83-.11-.48-.16-.72-.22-1-1.12,1.12-1.21,1.74-.57,3.9,1.05,0,1,0,1.81-.7a5.93,5.93,0,0,1,2.95-1.76,11.11,11.11,0,0,1,4.9.21C292.19,54.87,292.86,55,293.52,55.18Zm-1.19,19a1.05,1.05,0,0,0-.33-.7,18,18,0,0,0-5.95-3.86l-2.18-1c-.85-2.36-.78-4.86-1.8-7.09a48.62,48.62,0,0,0,1.21,7.19c.17.23.35.46.48.62a3,3,0,0,1-1.94,3.4c-.84.44-1.65,1-2.52,1.46-.4.07-.86.17-1.33.23a3.72,3.72,0,0,1-2.64-.35,15.44,15.44,0,0,1-3.3-2.72,1.64,1.64,0,0,1-.32-1.81c.38-1.06.72-2.13,1.07-3.2.42-1.28.84-2.55,1.23-3.83a2.11,2.11,0,0,0,0-1.41c-.86,2.54-1.7,5.07-2.55,7.6-3.32-.2-6.58,3.57-5,6.6l.31-.36.59,1.17c.38-.31.68-.54,1-.78.38.16.77.36,1.17.51a6.56,6.56,0,0,1,2.65,1.54,7.53,7.53,0,0,0,6.17,2.17c.34,0,.7,0,1-.07A9.51,9.51,0,0,0,283,78.22a18.87,18.87,0,0,1,2.51-1.1,16.71,16.71,0,0,1-3.42,3,8.52,8.52,0,0,1-4.36,1.53,5.09,5.09,0,0,1-3.85-.91A1.66,1.66,0,0,0,275.47,82a16.89,16.89,0,0,0,2.46.12,8.76,8.76,0,0,0,5.15-1.92,11.05,11.05,0,0,1,2.28-1.67,3.13,3.13,0,0,0,.8-.66L288.09,76c.52.12,1,.61,1.43-.14a2.69,2.69,0,0,0-1.6-1.21l-.47.54a20.31,20.31,0,0,0-2.62.91,21.48,21.48,0,0,1-4.94,1.55,7.18,7.18,0,0,1-4-.16c-2.82-1-5.73-1.73-8.12-3.66a1,1,0,0,0-.21,0c-.24.11-.56.23-1,.41a6.08,6.08,0,0,1,.28-2,6,6,0,0,1,3.19-2.91c.35-.12.74-.3,1.07,0,0,.67-.07,1.31-.11,1.89,1,.91,1.91,1.79,2.89,2.57A4.43,4.43,0,0,0,277.73,75a13.52,13.52,0,0,0,5.94-3,1.91,1.91,0,0,0,.72-1.61,5.77,5.77,0,0,1,.07-.84,24.71,24.71,0,0,1,4.13,2C289.9,72.31,291.09,73.27,292.33,74.16Zm-1.58-12.53A6.78,6.78,0,0,0,293,60.21a19.58,19.58,0,0,1-9.91-.41c0,.11-.06.24,0,.26a16.2,16.2,0,0,0,2.23,1.47,7.16,7.16,0,0,0,3.43.48A5.29,5.29,0,0,0,290.75,61.63ZM282.61,35l.17-.11-.47-1.09a3.83,3.83,0,0,0-3.86.55,2.19,2.19,0,0,0-.23,3.26c0-.82.09-1.67.13-2.38A4.09,4.09,0,0,1,281.17,34a1.09,1.09,0,0,1,1,.47C282.32,34.62,282.47,34.78,282.61,35Zm-9.23,20.84V53.84A6.44,6.44,0,0,0,271,51.42c.1.49.16.74.26,1.22-1.14-1.15-2.44-1.12-3.74-1.08-.82,0-1.64,0-2.46,0a15.75,15.75,0,0,0-2.17.31,1.52,1.52,0,0,0-1.18.68c.36.43.38.47.67.36a3.72,3.72,0,0,1,2-.07c2.48.42,4.93.9,7,2.49.11.09.38,0,.58,0,.22.31.44.63.66.93C272.9,56.13,273.1,56,273.38,55.79ZM271.74,60c.29-.12.62-.28.57-.78a2.29,2.29,0,0,0-1.21.36c-1.63.59-3.27,1.19-5,.4a12,12,0,0,1-1.77-1c-.34-.23-.63-.44-1-.13a1.23,1.23,0,0,0,.15.35,6.65,6.65,0,0,0,3.66,2.28A3.36,3.36,0,0,0,270,61,9.55,9.55,0,0,1,271.74,60Zm-9.59-2.6-.69-.3s0,0,0,0h-.05c-.11-.33-.34-.42-.71-.22l.71.22s0,0,0,0h0C261.55,57.41,261.78,57.52,262.15,57.37Zm-1.74.84c.57.4.57.4,1.4.26A1.5,1.5,0,0,0,260.41,58.21Z"/><path d="M305.68,228.76l-.39.28a6.76,6.76,0,0,0-2.53-1.71,59.18,59.18,0,0,0-7.92-2.5,26.85,26.85,0,0,0-6.68-.75c-1.7,0-3.39,0-5.07,0a33.61,33.61,0,0,0-3.76.08,26.59,26.59,0,0,0-11,4.07,60.64,60.64,0,0,1-7.62,4.18,29.1,29.1,0,0,1-6,2.11,71.94,71.94,0,0,1-11.33,1.16c-1.91.1-3.81.15-5.7.27a38.82,38.82,0,0,0-9.68,1.73c-1.27.43-2.56.82-3.81,1.29-3.07,1.16-6.15,2.31-9.19,3.56-2.56,1-5.06,2.22-7.6,3.33a24.87,24.87,0,0,0-5.51,3.15,40.28,40.28,0,0,1-5.8,3.68c-.69.38-1.42.72-2.09,1.11l-.27-.45c.22-.14.45-.26.67-.39a55.63,55.63,0,0,0,7.56-4.78,16.74,16.74,0,0,1,3-1.84c3.26-1.59,6.52-3.2,9.85-4.62s6.61-2.57,9.92-3.83a42.11,42.11,0,0,1,8.24-2.27,11.77,11.77,0,0,0,2.85-.82,19,19,0,0,1,5.76-1.47c2.62-.21,5.24-.51,7.86-.77a65.94,65.94,0,0,1,8.55-.21,2.63,2.63,0,0,0,1.25-.23l3.18-1.47a62.94,62.94,0,0,0,6.46-3.82c-.12-.11-.17-.2-.23-.2-1.12-.08-2.24-.18-3.36-.19h-.81v-.64h1.19l.1-.26c-.37-.28-.75-.55-1.13-.81l.27-.42,1.37.92a3.36,3.36,0,0,0,1.66.69l2.41.2a25.78,25.78,0,0,1,12.81-2.85c2,.08,4,0,6,.07a26.12,26.12,0,0,1,4.75.57c2.31.55,4.58,1.28,6.84,2a10.57,10.57,0,0,1,4.81,2.72Z"/><path d="M303.41,163.25c.33,0,.72-.07.93.45a2.14,2.14,0,0,1-.63.27c-.86,0-1.73,0-2.6,0-5.24-.1-10.48,0-15.71.3-5.89.3-11.76.77-17.6,1.57-2.05.29-4.09.75-6.12,1.13a8.24,8.24,0,0,1-1,.07c-.08-.52.2-.63.51-.7,2.5-.53,5-1.15,7.49-1.58,4.57-.76,9.2-1.07,13.82-1.39,4.28-.29,8.56-.51,12.85-.41C298.05,163,300.73,163.15,303.41,163.25Z"/><path class="cls-1" d="M302.76,264.2a12.7,12.7,0,0,1-.27,4.26,81.75,81.75,0,0,1-3,12.46c-.4,1.15-.85,2.28-1.34,3.38a27.38,27.38,0,0,0-1.87,6.2,35,35,0,0,1-2.27,7.56c-1.2,2.78-2.42,5.56-3.64,8.33a25.75,25.75,0,0,0-2.16,9.43c-.08,1.85-.29,3.7-.47,5.54a5.79,5.79,0,0,1-.53,1.88,11.26,11.26,0,0,1-.54,1,2,2,0,0,1-.85.74,57.11,57.11,0,0,0-9,5.6,22.84,22.84,0,0,1-5.94,3.42c-1.14.39-2.31.69-3.47,1-.27-.53-.53-1-.78-1.55-.36-.7-.7-1.38-1.05-2.05a32.61,32.61,0,0,0,12.1-10.32c.31-.41.61-.84.9-1.27a10.17,10.17,0,0,0,1.65-4.59,33.55,33.55,0,0,1,1.79-7.56,11.72,11.72,0,0,0,.56-2.78,57.35,57.35,0,0,0,.29-7.64c0-.44,0-.87,0-1.31a3.84,3.84,0,0,1,1.69-3.27,16.87,16.87,0,0,0,4.83-4.84,44.32,44.32,0,0,0,2.38-4.46,78,78,0,0,0,4.09-10.65,25.29,25.29,0,0,0,.51-12.69,107.35,107.35,0,0,0-4.37-14.8,5,5,0,0,0-1-1.82l-.1-.21a3.49,3.49,0,0,1,1.45-.5,1.67,1.67,0,0,0,.39-.05,13.21,13.21,0,0,1,6,.08,4.41,4.41,0,0,1,2.88,1.53c-.09,1.14-.24,2.34-.26,3.54,0,2.08-.12,4.17,0,6.24s.53,4.28.84,6.42C302.33,261.74,302.56,263,302.76,264.2Z"/><path class="cls-1" d="M300.14,77.31A11,11,0,0,1,300,80c-.68,2.91-1.42,5.81-2.25,8.68a28.68,28.68,0,0,1-1.56,3.56c-.29.68-.56,1.37-.86,2a8.18,8.18,0,0,1-.76,1.36c-1.57,2.11-3.13,4.25-4.77,6.31-2.13,2.67-4.28,5.33-6.52,7.9-1.41,1.62-3,3.06-4.38,4.76s-2.81,3-3.78,5.07a20.18,20.18,0,0,1-1.43-3.88,76.55,76.55,0,0,1-1.85-9c-.61-3.92-1.1-7.87-2.08-11.73-.32-1.29-.82-2.55-1.09-3.86-.46-2.22-.79-4.47-1.15-6.55a15.05,15.05,0,0,1,2,1.72,15.42,15.42,0,0,0,3.26,2.95l.42.28a8,8,0,0,1,3,5.93c.19,1.54.23,3.09.33,4.59-.16.65-.8,1.08-.64,2,.43-.43.76-.74,1.14-1.13-.21-2.87.09-5.78-.81-8.63a2.57,2.57,0,0,1,2.61-.29,9.05,9.05,0,0,1,4.5,3,12.55,12.55,0,0,1,2.57,4.9,4.72,4.72,0,0,0,.32.76,8.6,8.6,0,0,0,.72-2.84c.2-.92.29-1.86.43-2.79,1.13-.32,2,.23,2.95.51s1.8.6,2.71.91a5.4,5.4,0,0,0,1.44-2c.68-1.58,1.41-3.16,2-4.77a72.62,72.62,0,0,0,3-10.61,6.56,6.56,0,0,0,.07-1.93c-.1-1.59-.27-3.18-.41-4.77h.28a14.12,14.12,0,0,1,.51,2.89A11.13,11.13,0,0,1,300.14,77.31Z"/><path d="M299.52,77.12a6.56,6.56,0,0,1-.07,1.93,72.62,72.62,0,0,1-3,10.61c-.61,1.61-1.34,3.19-2,4.77a5.4,5.4,0,0,1-1.44,2c-.91-.31-1.8-.62-2.71-.91s-1.82-.83-2.95-.51c-.14.93-.23,1.87-.43,2.79a8.6,8.6,0,0,1-.72,2.84,4.72,4.72,0,0,1-.32-.76,12.55,12.55,0,0,0-2.57-4.9,9.05,9.05,0,0,0-4.5-3,2.57,2.57,0,0,0-2.61.29c.9,2.85.6,5.76.81,8.63-.38.39-.71.7-1.14,1.13-.16-.92.48-1.35.64-2-.1-1.5-.14-3.05-.33-4.59a8,8,0,0,0-3-5.93l.42-.54c.5.36,1,.71,1.58,1a6.48,6.48,0,0,0,2.69.81,18.43,18.43,0,0,0,5-.24,10.46,10.46,0,0,0,5.22-2.45,33.88,33.88,0,0,0,6.16-6.82A27,27,0,0,0,296.82,76c.5-1.32,1-2.64,1.48-4l.81.3C299.25,73.94,299.42,75.53,299.52,77.12Z"/><path d="M298.18,319.34l.18.7a20.18,20.18,0,0,0-4.44,1.95,39.59,39.59,0,0,1-6,3.06,33.17,33.17,0,0,0-3.86,1.83,72.38,72.38,0,0,0-7.69,5.07c-.88.63-1.81,1.19-2.72,1.77-1.89,1.18-4.14,1.47-6.12,2.42a.59.59,0,0,1-.25.07,2.51,2.51,0,0,0-2.3,1.2,18.53,18.53,0,0,1-3.51,3,8.57,8.57,0,0,1-4.1,1.46c-.38.05-.78,0-1.17,0a26,26,0,0,1-7.62-.28,32.71,32.71,0,0,1-9.48-3,104,104,0,0,0-14.62-6.35,20.17,20.17,0,0,1-5.17-2.68,55,55,0,0,0-6.65-4.29l-1.2-.63c0-1.38,0-2.72,0-4.06,0-.17-.14-.32-.21-.49l-.18.05v4.33A36.25,36.25,0,0,1,205,322a4.35,4.35,0,0,1-2.6-4.5s0-.07-.13-.28c-1-.36-2-.69-3-1.1a14.11,14.11,0,0,1-2.42-1.23,10.29,10.29,0,0,1-2.58-2.72c-.88-1.28-1.74-2.58-2.58-3.88a11.49,11.49,0,0,1-2-7,6.38,6.38,0,0,0-.41-3.66c-.27-2.05-.58-4.1-.8-6.16-.17-1.63-.21-3.28-.36-4.91a20.55,20.55,0,0,0-.45-2.81,24.42,24.42,0,0,0-.76-2.48,4.53,4.53,0,0,1-.24-2.81,49.45,49.45,0,0,0,1.28-6.61c.16-1,.33-2,.58-3.05a10.22,10.22,0,0,1,3.26-4.9l.09-.08.38.41a8.19,8.19,0,0,0-2.59,3.52,22.12,22.12,0,0,0-.72,3,72.91,72.91,0,0,1-1.41,8,4.77,4.77,0,0,0-.11,1,7.28,7.28,0,0,0,1.76,1.23l-.3.57c-.29-.16-.61-.32-1-.51.11.4.16.61.23.81a23.42,23.42,0,0,1,1,6.49c.15,1.81.24,3.61.36,5.42a24.46,24.46,0,0,0,1.17-5.05l.57.07c-.17,1.2-.27,2.41-.53,3.59a11.65,11.65,0,0,0-.24,2.7c0,1.9,0,3.8,0,5.71a10.32,10.32,0,0,0,1.29,5.74c1.15,1.88,2.4,3.7,3.62,5.54a8.44,8.44,0,0,0,4.52,3.29c1.63.57,3.24,1.24,4.8,2a18.16,18.16,0,0,0,4.28,1.45,26.42,26.42,0,0,1,3.91.88,13.92,13.92,0,0,0,5.72.83c.79,0,1.56-.12,2.34-.21l.08.76c-1.23.15-2.48.26-3.76.35a19.35,19.35,0,0,0,3.42,3.14A14.09,14.09,0,0,1,222.3,326c1.59,1.59,3.13,3.23,4.72,4.81a4.82,4.82,0,0,0,1.38.94,40.7,40.7,0,0,0,7,2.43c1.18.27,2.35.6,3.51.93,2,.59,4.06,1.23,6.1,1.78a7.41,7.41,0,0,0,3.3.34,16.29,16.29,0,0,1,.93-1.87c.64-1,1.34-1.9,2.05-2.83.18-.22.35-.44.5-.66l.56.41c-.76,1.05-1.5,2.05-2.21,3.08a5,5,0,0,0-.81,4.16,3.8,3.8,0,0,0,2.56,1.14c2.51.22,4.86-.56,7.33-1.07a9.71,9.71,0,0,0-.73-1.52l.43-.26.05.08c.43.74.84,1.5,1.26,2.26a12.16,12.16,0,0,0,3.65-2.83,7.71,7.71,0,0,1,2.85-2.15,7.48,7.48,0,0,0-.5-1.45l.37-.19c.25.51.51,1,.78,1.55,1.16-.33,2.33-.63,3.47-1a22.84,22.84,0,0,0,5.94-3.42,57.11,57.11,0,0,1,9-5.6,2,2,0,0,0,.85-.74,11.26,11.26,0,0,0,.54-1l.36.16a.94.94,0,0,1-.1.23,6.05,6.05,0,0,0-.24.63,1.44,1.44,0,0,0,.46,0c1.07-.46,2.16-.9,3.19-1.43s1.87-1.09,2.82-1.62A20.13,20.13,0,0,1,298.18,319.34Zm-88.52,4a6.53,6.53,0,0,0-.36-3.34A6.38,6.38,0,0,0,209.66,323.35Z"/><path d="M296.3,260.07a25.29,25.29,0,0,1-.51,12.69,78,78,0,0,1-4.09,10.65,44.32,44.32,0,0,1-2.38,4.46,16.87,16.87,0,0,1-4.83,4.84A3.84,3.84,0,0,0,282.8,296c0,.44,0,.87,0,1.31a57.35,57.35,0,0,1-.29,7.64,11.72,11.72,0,0,1-.56,2.78,33.55,33.55,0,0,0-1.79,7.56,10.17,10.17,0,0,1-1.65,4.59c-.29.43-.59.86-.9,1.27a32.61,32.61,0,0,1-12.1,10.32c.35.67.69,1.35,1.05,2.05l-.37.19a4.35,4.35,0,0,0-.81-1.18,29.71,29.71,0,0,1-3.11-4,40.34,40.34,0,0,1-2.42-4c-.49-.91-.82-1.91-1.26-2.84a39.74,39.74,0,0,0-4-6.65,26.13,26.13,0,0,0-7-6.36L248,308l2.63,1.66a13.52,13.52,0,0,0,4.44-.93c1.65-.75,3.28-1.56,4.89-2.4,1-.54,2-1.18,3-1.78s2-1.21,3-1.79,2.05-1.12,3.07-1.69,1.94-1.21,3-1.71,2.05-1.11,3.08-1.66a53.93,53.93,0,0,0,10.33-6.93,17.67,17.67,0,0,0,4.39-5.57,86.79,86.79,0,0,0,5-12.39,22.77,22.77,0,0,0,.84-11.52,99.79,99.79,0,0,0-4.92-17.19c-.05-.14,0-.35.11-.67a5,5,0,0,1,1,1.82A107.35,107.35,0,0,1,296.3,260.07ZM282,299.87c.09-1.76.18-3.51.28-5.43-3.66,2.55-7.62,4.39-11.41,6.55-.13.54-.28,1-.37,1.54A19.06,19.06,0,0,1,268,309.3a24.18,24.18,0,0,0-2.31,4.91,15.57,15.57,0,0,1-5.4,7.43l-.6.52c.81,3.36,3,5.8,4.81,8.44a5.69,5.69,0,0,0,3.75-1.29,36.46,36.46,0,0,0,9.8-10.42,6.77,6.77,0,0,0,1-2.65c.19-1.24.39-2.47.62-3.7a20.06,20.06,0,0,1,1.23-4.49,11,11,0,0,0,.83-3.91C281.86,302.72,281.92,301.3,282,299.87Z"/><path class="cls-1" d="M295.71,261.31a22.77,22.77,0,0,1-.84,11.52,86.79,86.79,0,0,1-5,12.39,17.67,17.67,0,0,1-4.39,5.57,53.93,53.93,0,0,1-10.33,6.93c-1,.55-2,1.16-3.08,1.66s-2,1.15-3,1.71S267,302.2,266,302.78s-2,1.2-3,1.79-2,1.24-3,1.78c-1.61.84-3.24,1.65-4.89,2.4a13.52,13.52,0,0,1-4.44.93L248,308l-5.91-3.74,3.28-1.46a15.9,15.9,0,0,1,4.09-1.21,3.58,3.58,0,0,0,2.06-1,6.51,6.51,0,0,1,1.5-1,60.7,60.7,0,0,0,8.48-5.74,25.41,25.41,0,0,1,5.33-3.44c.88-.38,1.67-1.11,2.76-.88,1.24-.88,2.84-1,4.1-1.83,1.63-1.13,3.31-2.21,4.94-3.34a7.85,7.85,0,0,0,2.58-3,32.68,32.68,0,0,1,1.93-3.35,13.14,13.14,0,0,0,2.27-7.46c0-1.42.14-2.85.14-4.28a20.2,20.2,0,0,0-.71-5.77c-1.05-3.74-2-7.5-3-11.26-.05-.16-.07-.33-.12-.56.23-.17.45-.37.7-.52,2.81-1.63,5.62-3.25,8.41-4.9l.1.21c-.06.32-.16.53-.11.67A99.79,99.79,0,0,1,295.71,261.31Z"/><path d="M293.69,60.21h1.56C294.66,60.74,294.66,60.74,293.69,60.21Z"/><path d="M295.38,58.19c-.76.92-.76.92-1.57,1.15A3,3,0,0,1,295.38,58.19Z"/><path d="M293.72,55l-.2.19c-.66-.17-1.33-.31-2-.5a11.11,11.11,0,0,0-4.9-.21,5.93,5.93,0,0,0-2.95,1.76c-.78.7-.76.73-1.81.7-.64-2.16-.55-2.78.57-3.9.06.27.11.51.22,1,.21-.36.35-.61.47-.83a11.77,11.77,0,0,0,3.83-.3,4.42,4.42,0,0,1,2.55.09c1.3.44,2.56,1,3.83,1.58C293.5,54.63,293.6,54.85,293.72,55Z"/><path class="cls-1" d="M295.84,235a11.64,11.64,0,0,1-2.6,1.56,1.7,1.7,0,0,1-.9,0c-1.61-.25-3.23-.52-4.93-.8a22.69,22.69,0,0,0-1.77-2.23,24.85,24.85,0,0,0-2.31-1.82c3.05-.69,5.86-.64,8.51.92Z"/><path class="cls-1" d="M293,338.05a2.32,2.32,0,0,1,.55,0,33.39,33.39,0,0,1-4.7,7.15,11.24,11.24,0,0,1-2,1.67,67.56,67.56,0,0,1-8.35,5,10.21,10.21,0,0,1-4.38,1c-.95,0-1.9.1-2.84.13a13.89,13.89,0,0,1-5-.6c.05-.15.05-.25.1-.28,3.35-1.78,6.73-3.53,10.06-5.36,4.8-2.66,9.54-5.42,14.47-7.84C291.61,338.59,292.3,338.33,293,338.05Z"/><path d="M292,73.46a1.05,1.05,0,0,1,.33.7c-1.24-.89-2.43-1.85-3.74-2.63a24.71,24.71,0,0,0-4.13-2,5.77,5.77,0,0,0-.07.84,1.91,1.91,0,0,1-.72,1.61,13.52,13.52,0,0,1-5.94,3,4.43,4.43,0,0,1-3.82-1.18c-1-.78-1.87-1.66-2.89-2.57,0-.58.08-1.22.11-1.89-.33-.29-.72-.11-1.07,0a6,6,0,0,0-3.19,2.91,6.08,6.08,0,0,0-.28,2c.43-.18.75-.3,1-.41a1,1,0,0,1,.21,0c2.39,1.93,5.3,2.71,8.12,3.66a7.18,7.18,0,0,0,4,.16,21.48,21.48,0,0,0,4.94-1.55,20.31,20.31,0,0,1,2.62-.91l.47-.54a2.69,2.69,0,0,1,1.6,1.21c-.42.75-.91.26-1.43.14l-1.93,1.86a3.13,3.13,0,0,1-.8.66,11.05,11.05,0,0,0-2.28,1.67,8.76,8.76,0,0,1-5.15,1.92,16.89,16.89,0,0,1-2.46-.12,1.66,1.66,0,0,1-1.55-1.29,5.09,5.09,0,0,0,3.85.91,8.52,8.52,0,0,0,4.36-1.53,16.71,16.71,0,0,0,3.42-3l.08,0,0,0c.31.07.45-.12.47-.47l-.47.47h0l-.05.06a18.87,18.87,0,0,0-2.51,1.1,9.51,9.51,0,0,1-3.66,1.23c-.34,0-.7,0-1,.07a7.53,7.53,0,0,1-6.17-2.17,6.56,6.56,0,0,0-2.65-1.54c-.4-.15-.79-.35-1.17-.51-.31.24-.61.47-1,.78l-.59-1.17-.31.36c-1.56-3,1.7-6.8,5-6.6.85-2.53,1.69-5.06,2.55-7.6a2.11,2.11,0,0,1,0,1.41c-.39,1.28-.81,2.55-1.23,3.83-.35,1.07-.69,2.14-1.07,3.2a1.64,1.64,0,0,0,.32,1.81,15.44,15.44,0,0,0,3.3,2.72,3.72,3.72,0,0,0,2.64.35c.47-.06.93-.16,1.33-.23.87-.51,1.68-1,2.52-1.46a3,3,0,0,0,1.94-3.4c-.13-.16-.31-.39-.48-.62a48.62,48.62,0,0,1-1.21-7.19c1,2.23.95,4.73,1.8,7.09l2.18,1A18,18,0,0,1,292,73.46Zm-10.55,4.92a6.61,6.61,0,0,0,.75-.46,30.12,30.12,0,0,1-4.43.42,28.89,28.89,0,0,1-4.27-.87,2.46,2.46,0,0,0,1.83,1.31A12.46,12.46,0,0,0,281.45,78.38Z"/><path d="M293,60.21a6.78,6.78,0,0,1-2.27,1.42,5.29,5.29,0,0,1-2,.38,7.16,7.16,0,0,1-3.43-.48,16.2,16.2,0,0,1-2.23-1.47s0-.15,0-.26A19.58,19.58,0,0,0,293,60.21Z"/><path d="M291.13,167.1c-.25.29-.32.45-.41.47a3.94,3.94,0,0,1-.77.08l-8.69.19c-.41,0-.83,0-1.51-.05.31-.36.42-.6.59-.66a3,3,0,0,1,.9-.1l8.69-.05C290.26,167,290.6,167.05,291.13,167.1Z"/><path class="cls-1" d="M286.73,236.45c.49,1,1,1.88,1.58,2.81a87.89,87.89,0,0,1-9.22,5.44c.22-1.93-.77-3.25-1.77-4.56-.65-.86-1.36-1.68-2.08-2.48a10.24,10.24,0,0,0-4.48-3c1.89-1,3.64-2,5.43-3a4.68,4.68,0,0,1,3.89-.31c.36.13.76.17,1.12.29a4.41,4.41,0,0,1,1.31.51A12.55,12.55,0,0,1,286.73,236.45Z"/><path class="cls-1" d="M285.65,77.07l.47-.47C286.1,77,286,77.14,285.65,77.07Z"/><path class="cls-1" d="M285.65,77.07l0,0,0,0Z"/><path d="M285.63,77.09l-.08,0,.05-.06Z"/><path class="cls-1" d="M283.1,261.65a69.63,69.63,0,0,1,.1,9.47,45.39,45.39,0,0,1-.84,5.89,5.38,5.38,0,0,1-.63,1.54c-.44.84-1,1.62-1.4,2.49a6.29,6.29,0,0,1-2.22,2.64c-1.67,1.16-3.38,2.27-5.1,3.36a8.38,8.38,0,0,1-3.08,1.21,6.25,6.25,0,0,1-.21-.72,14.41,14.41,0,0,1,.59-6.89c.86-2.86,1.63-5.74,2.37-8.63.41-1.59.65-3.22,1-4.82a18.69,18.69,0,0,0,.18-4.78c-.05-1.25-.15-2.5-.23-3.75-.06-.82-.09-1.64-.21-2.45s-.32-1.6-.52-2.53l7.65-4.48c.3,1,.61,1.86.83,2.76A66.2,66.2,0,0,1,283.1,261.65Z"/><path d="M282.78,34.84l-.17.11c-.14-.17-.29-.33-.43-.51a1.09,1.09,0,0,0-1-.47,4.09,4.09,0,0,0-2.82,1.21c0,.71-.09,1.56-.13,2.38a2.19,2.19,0,0,1,.23-3.26,3.83,3.83,0,0,1,3.86-.55Z"/><path class="cls-1" d="M282.28,294.44c-.1,1.92-.19,3.67-.28,5.43-.08,1.43-.14,2.85-.24,4.27a11,11,0,0,1-.83,3.91,20.06,20.06,0,0,0-1.23,4.49c-.23,1.23-.43,2.46-.62,3.7a6.77,6.77,0,0,1-1,2.65,36.46,36.46,0,0,1-9.8,10.42,5.69,5.69,0,0,1-3.75,1.29c-1.8-2.64-4-5.08-4.81-8.44l.6-.52a15.57,15.57,0,0,0,5.4-7.43A24.18,24.18,0,0,1,268,309.3a19.06,19.06,0,0,0,2.47-6.77c.09-.5.24-1,.37-1.54C274.66,298.83,278.62,297,282.28,294.44Z"/><path class="cls-1" d="M282.2,77.92a6.61,6.61,0,0,1-.75.46,12.46,12.46,0,0,1-6.12.4,2.46,2.46,0,0,1-1.83-1.31,28.89,28.89,0,0,0,4.27.87A30.12,30.12,0,0,0,282.2,77.92Z"/><path class="cls-1" d="M277.27,241.57c1,1.46,1.06,1.73,1,3.72-2.22,1.29-4.44,2.68-6.89,3.93-.21-.64-.38-1.17-.57-1.69a10.73,10.73,0,0,0-1.13-2.87,5.47,5.47,0,0,1-.42-1.35c-.35-1-.68-2-1.1-3a4.94,4.94,0,0,0-2.45-2.56l-.67-.34c.41-.19.67-.33.93-.44,1.11-.48,2.24-.92,3.33-1.43a1.8,1.8,0,0,1,1.73,0,10.93,10.93,0,0,1,1.64,1A25.2,25.2,0,0,1,277.27,241.57Z"/><path d="M273.38,53.84v1.95c-.28.21-.48.34-.71.49-.22-.3-.44-.62-.66-.93-.2,0-.47.12-.58,0-2.06-1.59-4.51-2.07-7-2.49a3.72,3.72,0,0,0-2,.07c-.29.11-.31.07-.67-.36a1.52,1.52,0,0,1,1.18-.68,15.75,15.75,0,0,1,2.17-.31c.82-.06,1.64,0,2.46,0,1.3,0,2.6-.07,3.74,1.08-.1-.48-.16-.73-.26-1.22A6.44,6.44,0,0,1,273.38,53.84Z"/><path d="M272.9,36.47c-.34.28-.48.47-.63.51a15.44,15.44,0,0,1-2.67.42,4,4,0,0,1-1.12-.16,3.81,3.81,0,0,1-2.38-2.13,7.2,7.2,0,0,1-.72-3.79c.21.49.31.73.4,1,.26.78.46,1.58.78,2.33a3.5,3.5,0,0,0,3.82,2.26C271.14,36.81,271.89,36.65,272.9,36.47Z"/><path d="M272.31,59.19c.05.5-.28.66-.57.78A9.55,9.55,0,0,0,270,61a3.36,3.36,0,0,1-2.87.42,6.65,6.65,0,0,1-3.66-2.28,1.23,1.23,0,0,1-.15-.35c.41-.31.7-.1,1,.13a12,12,0,0,0,1.77,1c1.73.79,3.37.19,5-.4A2.29,2.29,0,0,1,272.31,59.19Z"/><path class="cls-1" d="M271.89,263c.06.91.16,1.81.16,2.71a21.52,21.52,0,0,1-3.53,12.15c-1.18,1.8-2.24,3.7-3.24,5.62A28.1,28.1,0,0,1,257,293c-1.42,1.05-2.91,2-4.38,3s-3,1.88-4.46,2.91a8.22,8.22,0,0,1-5.53,1.43c-1.15-.06-2.31-.07-3.47-.06l-2.49,0a4.06,4.06,0,0,1-2.23-.47c-2-1.15-4.07-2.12-6-3.34-2.53-1.58-4.93-3.37-7.43-5a7.16,7.16,0,0,1-2.66-3.58,57.45,57.45,0,0,1-2.87-10.22,31.43,31.43,0,0,1-.63-5.2,46.38,46.38,0,0,1,.12-5.65,9.53,9.53,0,0,1,1.52-4.63,17.92,17.92,0,0,0,1.41-2.63,20.44,20.44,0,0,1,3.46-5q.81-.93,1.68-1.8a8.61,8.61,0,0,1,1.08-.92c2.42-1.76,4.85-3.48,7.25-5.26,1-.74,1.93-1.59,3-2.52l2.35-.45c3.66-.66,7.32-1.3,11-2a4.88,4.88,0,0,1,2.43.1c.94.29,1.94.43,2.87.77a9.35,9.35,0,0,1,4.92,4.05,21.19,21.19,0,0,1,1.71,3.48c.64,1.65,1.13,3.36,1.71,5.11l-9.12,5.31c-.05-.12-.13-.23-.1-.28a3.94,3.94,0,0,0,.09-3.14c-.63-2.1-1.19-4.24-1.73-6.38-.4-1.59-.76-1.93-2.42-1.85A17.24,17.24,0,0,0,237.14,253c-1.4,1.23-2.77,2.49-4.14,3.74-1,.93-2,1.89-3.09,2.77a16.23,16.23,0,0,0-2.86,3.17,6.8,6.8,0,0,0-1.28,3.76,20.44,20.44,0,0,0,.18,2.71,11.73,11.73,0,0,1,0,3.74,19.2,19.2,0,0,0,.09,8.23,5,5,0,0,0,1,2.22c1.07,1.25,2.12,2.51,3.27,3.67a15.27,15.27,0,0,0,5,3c3.5,1.55,2.49,1.34,5.9.34a43.71,43.71,0,0,0,4.94-1.58,24.43,24.43,0,0,0,12-10.23,22.12,22.12,0,0,0,2.24-5.37c.43-1.59,1-3.14,1.46-4.7a12.78,12.78,0,0,0,.7-4.34c0-1.37,0-2.76,0-4.35l8.48-4.94c.19,1.37.39,2.59.52,3.82C271.68,260.05,271.77,261.52,271.89,263Z"/><path class="cls-1" d="M270.83,275.85c-.35,1.28-.61,2.27-.88,3.26s-.63,2.16-.93,3.25a8.62,8.62,0,0,0-.15,3.85c.12.71.18,1.44.28,2.22l-2,.88a26.13,26.13,0,0,0-5.69,3.59c-1.29,1-2.56,2.08-3.91,3-1.56,1.08-3.2,2-4.81,3.07a8.14,8.14,0,0,0-1.48,1,3,3,0,0,1-1.69.87,15.21,15.21,0,0,0-2.51.67l-.38-1a8.3,8.3,0,0,0,1.58-.84c1.79-1.21,3.65-2.31,5.5-3.44a42.68,42.68,0,0,0,7.3-5.59,28,28,0,0,0,5.14-7c1.31-2.39,2.71-4.72,4.09-7.08C270.37,276.43,270.52,276.27,270.83,275.85Z"/><path class="cls-1" d="M268.66,226.62c.06,0,.11.09.23.2a62.94,62.94,0,0,1-6.46,3.82l-3.18,1.47a2.63,2.63,0,0,1-1.25.23,65.94,65.94,0,0,0-8.55.21c-2.62.26-5.24.56-7.86.77a19,19,0,0,0-5.76,1.47,11.77,11.77,0,0,1-2.85.82,42.11,42.11,0,0,0-8.24,2.27c-3.31,1.26-6.66,2.43-9.92,3.83s-6.59,3-9.85,4.62a16.74,16.74,0,0,0-3,1.84,55.63,55.63,0,0,1-7.56,4.78c-.22.13-.45.25-.67.39-.75.43-1.51.9-2.34,1.38,0-.27,0-.5.06-.71.43-2.18,1.85-3.75,3.24-5.36a29.91,29.91,0,0,1,6-5.11c.3-.22.58-.48.87-.72.16,0,.37.09.48,0a36,36,0,0,1,9.54-4.88c5.61-1.89,11.21-3.8,16.84-5.63,5.3-1.73,10.61-3.44,16.06-4.66a47.78,47.78,0,0,1,11-1.26c3,0,5.95,0,8.92,0h.81C266.42,226.44,267.54,226.54,268.66,226.62Z"/><path class="cls-1" d="M268,242.05a58.91,58.91,0,0,1,2,8.09l-8.19,4.77a11,11,0,0,1-.35-1.15,32.83,32.83,0,0,0-1.49-5.23,10.83,10.83,0,0,0-7.54-7.06c-.28-.08-.55-.19-1.06-.36a87.89,87.89,0,0,0,12.61-3.37l.25,0A6.1,6.1,0,0,1,268,242.05Z"/><path d="M259.13,33.81a10.69,10.69,0,0,0,8.81,4c-.78.74-1.58.41-2.53.46-.58.34-1.33.77-2.08,1.18a2.39,2.39,0,0,1-.83.34l-.42.05a9.47,9.47,0,0,1-4.33-.3,5.35,5.35,0,0,1-2.88-2.4c1,.61,1.89,1.27,2.9,1.79a8.12,8.12,0,0,0,3.44.47c1.28.07,2.17-.74,3.36-1.25a4.6,4.6,0,0,0-.61-.34,11.94,11.94,0,0,1-4.3-2.59,2.75,2.75,0,0,1-.94-3.17C258.87,32.71,259,33.28,259.13,33.81Z"/><path class="cls-1" d="M266.19,333.69a7.48,7.48,0,0,1,.5,1.45,7.71,7.71,0,0,0-2.85,2.15,12.16,12.16,0,0,1-3.65,2.83c-.42-.76-.83-1.52-1.26-2.26l-.05-.08c-.46-.8-.92-1.59-1.41-2.37a3.74,3.74,0,0,0-.75-.89,103.07,103.07,0,0,1-7.74-8q-3.1-3.39-6.25-6.75c-1.57-1.68-3.15-3.33-4.73-5a27.55,27.55,0,0,0-8.37-6.05c-2.07-1-4.06-2.13-6.11-3.15-.81-.41-1.63-.79-2.45-1.18-1.1-.51-2.2-1-3.28-1.58a56.26,56.26,0,0,1-8.86-5.64q-.68-.51-1.38-1c-.78-.53-1.59-1-2.38-1.56s-1.9-1.21-2.88-1.76a9.2,9.2,0,0,1-3-2.8c-.48-.67-.93-1.35-1.43-2a20.27,20.27,0,0,0-5.77-5.34c-.43-.26-1-.41-1.22-.93,0-.1-.31-.08-.46-.14a11.32,11.32,0,0,1-1.28-.57,7.28,7.28,0,0,1-1.76-1.23,4.77,4.77,0,0,1,.11-1,72.91,72.91,0,0,0,1.41-8,22.12,22.12,0,0,1,.72-3,8.19,8.19,0,0,1,2.59-3.52c3-2.6,6-5.13,9-7.68a3,3,0,0,1,.44-.24,2.42,2.42,0,0,1-.11.66,105,105,0,0,1-7,13.15c-.29.43-.6.85-.9,1.28a2,2,0,0,0,.13,2.71,9.81,9.81,0,0,0,1.84,1.62,30.44,30.44,0,0,0,5.63,2.94c1.44.59,2.82,1.31,4.32,2a20.47,20.47,0,0,0-.41-3.45c-.17-1.2-.35-2.4-.51-3.6a23.09,23.09,0,0,0-.62-3.62l.39-.12a1.53,1.53,0,0,1,.2.5c.35,2.27.67,4.54,1,6.81.14,1,.28,1.89.4,2.83a6.59,6.59,0,0,1,0,.89c2.16,1.74,4.33,3.53,6.55,5.24,2.81,2.17,5.66,4.28,8.5,6.4A74.52,74.52,0,0,0,231,299a132.82,132.82,0,0,1,11.81,6.8c1.37.91,2.81,1.72,4.21,2.57l.55.34a26.13,26.13,0,0,1,7,6.36,39.74,39.74,0,0,1,4,6.65c.44.93.77,1.93,1.26,2.84a40.34,40.34,0,0,0,2.42,4,29.71,29.71,0,0,0,3.11,4A4.35,4.35,0,0,1,266.19,333.69Z"/><path class="cls-1" d="M265.79,225.52l-.1.26H264.5c-.24,0-.49,0-.73,0a78.49,78.49,0,0,0-9.33-.14c-1.3.1-2.59.18-3.88.26a3.53,3.53,0,0,1-.65,0,42.62,42.62,0,0,0-12,.89c-1.73.33-3.47.73-5.17,1.23a16.8,16.8,0,0,0-4.92,2.54,19.46,19.46,0,0,1-5.48,2.9c-4,1.25-7.86,2.68-11.78,4a4.79,4.79,0,0,1-.67.14,4.83,4.83,0,0,1,.47-.58c.77-.7,1.57-1.37,2.38-2a74.86,74.86,0,0,1,11.3-7.33,53.25,53.25,0,0,1,12.64-4.57c2.93-.75,5.85-1.54,8.79-2.25,1.3-.31,2.63-.48,3.95-.69.42-.07.87-.05,1.29-.13a8.81,8.81,0,0,1,4.94.64c1.78.66,3.58,1.28,5.33,2a21.21,21.21,0,0,1,3.65,2C265,225,265.42,225.24,265.79,225.52Z"/><path d="M264.93,224.29l-.27.42a21.21,21.21,0,0,0-3.65-2c-1.75-.74-3.55-1.36-5.33-2a8.81,8.81,0,0,0-4.94-.64c-.42.08-.87.06-1.29.13-1.32.21-2.65.38-3.95.69-2.94.71-5.86,1.5-8.79,2.25a53.25,53.25,0,0,0-12.64,4.57,74.86,74.86,0,0,0-11.3,7.33l-.4-.49a61.54,61.54,0,0,1,9.35-6.51,42.15,42.15,0,0,1,9.56-4.31c3.17-.87,6.35-1.67,9.53-2.51l3.78-1c.18-.84.38-1.55.49-2.27.26-1.66.47-3.32.73-5,1-6.79,2-13.57,3.12-20.35.5-3.19,1-6.4,1.72-9.56a90.83,90.83,0,0,0,2-15.92,7.06,7.06,0,0,0-.41-2.81c-.4-1.09-.82-2.19-1.32-3.24a25.32,25.32,0,0,0-3.81-6.45,18.14,18.14,0,0,1-2.93-5.31,24.2,24.2,0,0,1-1-3.63,5.68,5.68,0,0,1,.59-4.38,4,4,0,0,0,.49-2.19c-.07-2.56-1-4.89-1.63-7.3,0,0-.06-.05-.21-.15a9,9,0,0,0-1.27,1q-2.86,3.09-5.67,6.24a8.24,8.24,0,0,0-.78,1.2c-.39.61-.72,1.28-1.17,1.85a42.49,42.49,0,0,1-7.3,7.26c-.75.3-1.38-.08-2.05-.24a3.34,3.34,0,0,0-.4.57,11,11,0,0,1-2.71,3.92,4.2,4.2,0,0,0-1.32,3.24,68,68,0,0,1-.48,8.8,20.58,20.58,0,0,1-1.42,5.77c-.44,1-.9,2.06-1.41,3.06-1.42,2.77-2.93,5.5-4.3,8.3a10.83,10.83,0,0,0-.95,8,17.24,17.24,0,0,1,.42,2,2.66,2.66,0,0,1,0,.89c-.18,1-.38,2-.61,2.92-.59,2.48-1.23,4.94-1.77,7.43-.41,1.86-.95,3.61-2.41,4.81,0,1.74,0,3.39,0,5a2.8,2.8,0,0,1-1.75,2.9c-.35.16-.69.34-1.07.52l-.19-.62,1.62-1.49c.12-.95.26-1.84.33-2.73,0-.68,0-1.37,0-2.27a4.74,4.74,0,0,0-.76.88l-.77-.3c.6-.85,1.13-1.76,1.8-2.55a8.22,8.22,0,0,0,1.79-3.69c.23-1.1.41-2.21.68-3.3q.8-3.08,1.65-6.14a6.66,6.66,0,0,0-.25-4.55,3.5,3.5,0,0,1-.2-1.78c.05-.43.1-.86.16-1.29a17.52,17.52,0,0,1,1.77-6.31c1.34-2.48,2.53-5,3.79-7.55a27.17,27.17,0,0,0,2.85-9.78c.2-2.14.44-4.29.43-6.45a9.1,9.1,0,0,1,.26-1.79,10,10,0,0,1,2.13-4l1.71-2.23a18.48,18.48,0,0,0-3.85-1.44c-1.57-.35-3.13-.66-4.7-1a19.85,19.85,0,0,1-6.79-2.8c-1.48-1-2.87-2.1-4.29-3.15l-1-.72c-.58.84-1.16,1.64-1.71,2.44l-.66-.48c.67-.94,1.29-1.92,2-2.88.2-.28.42-.54.67-.87-.41-.59-.84-1.18-1.25-1.78a2.1,2.1,0,0,1-.23-2.18,102.32,102.32,0,0,1,6.45-13q3.75-6.54,8-12.78a85.68,85.68,0,0,0,6.2-11,27.92,27.92,0,0,1,5.46-8.16c1.49-1.57,3-3.07,4.55-4.62a2.52,2.52,0,0,0,.62-1c.79-2.54,2.61-4.25,4.64-5.76a19.06,19.06,0,0,1,5.61-2.67c3.36-1.12,6.73-2.24,10.11-3.3a13.37,13.37,0,0,1,5.21-.82,4.48,4.48,0,0,0,1.32-.19l.15.63-.82.11c-.08,1.68-.16,3.27-.24,4.86,0,.31,0,.61,0,.91-.22,2.28-.44,4.55-.67,6.83-.21,2.06-.38,4.12-.63,6.18-.37,2.91-.86,5.81-1.17,8.73A77,77,0,0,1,254,109.71c-1.41,5.75-2.72,11.52-4.48,17.18-.58,1.9-1.1,3.82-1.61,5.74s-1.32,3.72-1.68,5.69a21.32,21.32,0,0,1-1.25,4,7.48,7.48,0,0,0-.29,3.83,13.43,13.43,0,0,0,2,5c.81,1.37,1.76,2.67,2.64,4a18,18,0,0,1,1.13,1.88c.87,1.79,1.72,3.59,2.51,5.42a12.44,12.44,0,0,1,1,3.87c.09,1-.08,2.06-.08,3.09a41.76,41.76,0,0,1-.5,7c-.41,2.51-.85,5-1.38,7.53-1.24,5.87-2,11.84-3.11,17.74-.68,3.61-1.35,7.22-2.13,10.81a31.61,31.61,0,0,0-.73,6.43c0,.28.07.57.1.87,1.67-.19,3.25-.39,4.85-.54a7.47,7.47,0,0,1,2.06,0,27.66,27.66,0,0,1,9.22,3.37C263.18,223.12,264.06,223.7,264.93,224.29Zm-19.05-94.42.23-.11a1,1,0,0,0-.06-.35c-.92-1.62-1.89-3.21-2.75-4.85-2.15-4.11-4.28-8.22-6.33-12.37A96.79,96.79,0,0,0,230.69,101c-.26-.39-.55-.75-.88-1.2-.25.54.07.79.24,1a88,88,0,0,1,6.11,11.46c2.47,5.41,5.5,10.51,8.41,15.68C244.94,128.63,245.44,129.24,245.88,129.87Zm-1.49-7.64a2.59,2.59,0,0,0-.24-1.26c-1.12-2.63-2.29-5.24-3.35-7.88a51.58,51.58,0,0,1-3.18-10,28.2,28.2,0,0,0-1.38-4.59c-.73-2-1.33-4-1.92-6.06-.53-1.76-.95-3.56-1.42-5.34h-.23a16.92,16.92,0,0,0,.28,2.14c.72,2.85,1.48,5.68,2.24,8.52a6.35,6.35,0,0,0,.36,1,24.63,24.63,0,0,1,1.42,5,29.7,29.7,0,0,0,1.85,6.22c1.69,3.93,3.46,7.84,5.2,11.75A3.43,3.43,0,0,0,244.39,122.23Z"/><path d="M264.5,225.79v.64c-3,0-5.95,0-8.92,0a47.78,47.78,0,0,0-11,1.26c-5.45,1.22-10.76,2.93-16.06,4.66-5.63,1.83-11.23,3.74-16.84,5.63a36,36,0,0,0-9.54,4.88c-.11.07-.32,0-.48,0l0,0,0,0a9.39,9.39,0,0,0-.55-4.58l-.85-.08a4.25,4.25,0,0,0,.57-.17c.16-1.16-.67-13.59-1-15.89-1.73-2.18-3.37-4.24-5-6.31a2,2,0,0,0-1.16-.77h-.13a4,4,0,0,1-3.3-3.68c-.34-3-.94-6-1.43-9.07a18.62,18.62,0,0,1-.12-4,5.24,5.24,0,0,1,.67-2.08c.91-1.72,1.91-3.39,2.87-5.09a31.41,31.41,0,0,0,2.28-4.66,14,14,0,0,0,.6-3.43c.28-2.06.43-4.13.58-6.2.12-1.59.19-3.19.22-4.79,0-.81-.16-1.63-.14-2.45,0-2.29.15-4.58.22-6.87,0-.17,0-.35,0-.52.09-3.5.14-7,.28-10.51a15.09,15.09,0,0,1,3.14-8.76c.19-.25.36-.49.54-.75l.66.48c-.33.48-.66,1-1,1.47a14.37,14.37,0,0,0-2.1,6.61c-.14,2.2-.21,4.41-.26,6.61-.11,4.33-.19,8.65-.27,13,0,.82,0,1.64,0,2.47-.05,1.07-.14,2.15-.24,3.22-.17,1.81-.36,3.61-.55,5.41-.12,1.16-.2,2.32-.4,3.47a16.33,16.33,0,0,1-1.63,4.49c-1.18,2.41-2.45,4.78-3.63,7.18a5,5,0,0,0-.61,2,25.92,25.92,0,0,0,.2,4.13c.39,2.69,1,5.36,1.13,8.08a6,6,0,0,0,.3,1.52,2.17,2.17,0,0,0,1.42,1.52c0-.16.08-.26.05-.31a8.37,8.37,0,0,1-.95-4.24c-.08-1.52-.05-3,0-4.55a24.58,24.58,0,0,1,.27-2.84c.05-.41.2-.85.86-.78,0,.58,0,1.14,0,1.69,0,.34-.11.68-.1,1,.08,2.07.15,4.14.27,6.21a6,6,0,0,0,1.39,3.69c.08.1.14.22.22.32l4.12,5.67a2.52,2.52,0,0,0,.37.35,1.76,1.76,0,0,0,.12-.34c-.14-2-.27-4-.43-5.94-.09-1.24-.3-2.49-.32-3.73a7.41,7.41,0,0,1,.95-4.48c.55-2,1.93-3.55,3-5.28a1.39,1.39,0,0,1,1.14-.8,6.91,6.91,0,0,1-.64,1.47c-.67,1.4-1.34,2.8-2,4.22a1.67,1.67,0,0,0-.16,1c.28,1.26.6,2.52,1,3.76a2,2,0,0,0,1.71,1.48c.15-.21.34-.43.51-.67l.77.3a4.92,4.92,0,0,1-1.45,1.72,1.68,1.68,0,0,0-1.66-.73c.07.72.14,1.35.21,2,.95.63.62,2.06,1.7,2.65l.19.62a4.53,4.53,0,0,1,.62,2.91,3.11,3.11,0,0,1-1.64,2.48c.24,2.38.44,4.7.69,7s.38,4.71.77,7.06a1.75,1.75,0,0,0,.47-.05,46.5,46.5,0,0,1,6.18-1.42,2.82,2.82,0,0,0,1.13-.54l.11-.08.4.49c-.81.65-1.61,1.32-2.38,2a4.83,4.83,0,0,0-.47.58,4.79,4.79,0,0,0,.67-.14c3.92-1.34,7.82-2.77,11.78-4a19.46,19.46,0,0,0,5.48-2.9,16.8,16.8,0,0,1,4.92-2.54c1.7-.5,3.44-.9,5.17-1.23a42.62,42.62,0,0,1,12-.89,3.53,3.53,0,0,0,.65,0c1.29-.08,2.58-.16,3.88-.26a78.49,78.49,0,0,1,9.33.14C264,225.79,264.26,225.79,264.5,225.79Zm-21,1.11s0-.05,0-.18c-1.61.25-3.19.46-4.75.75a37.84,37.84,0,0,0-6.28,1.53,18.38,18.38,0,0,0-4.34,2.27c.19,0,.28.09.35.07q7.38-2.4,14.89-4.35A.19.19,0,0,0,243.53,226.9ZM203.9,241c.31-.64.29-1.58-.11-3.55A8.09,8.09,0,0,0,203.9,241Zm-1-19.56a3.14,3.14,0,0,0-.41-4C202.65,218.79,202.78,220.06,202.92,221.44Z"/><path d="M261.46,57.07l.69.3C261.78,57.52,261.55,57.41,261.46,57.07Z"/><path class="cls-1" d="M262,260.28a19,19,0,0,1-.9,8.11c-.61,1.52-1,3.12-1.5,4.7a21.57,21.57,0,0,1-8.2,11.67,24.83,24.83,0,0,1-8.21,4.06c-1.42.38-2.82.83-4.24,1.2a1.9,1.9,0,0,1-1.13,0c-2.43-1-5-1.91-6.92-3.76a32.52,32.52,0,0,1-3.31-3.81,4.71,4.71,0,0,1-.71-1.79,18.83,18.83,0,0,1-.17-7.33c.28-1.87.47-3.76.64-5.66a5.21,5.21,0,0,1,1.7-3.39,29.25,29.25,0,0,1,7.09-5c2-1,4-1.79,6-2.65a5.57,5.57,0,0,1,1.25-.36,2,2,0,0,1,2.22.94,4.58,4.58,0,0,1,.71,3.58c-.18,1-.5,1.93-.74,2.89a1.79,1.79,0,0,1-.91,1.2c-1.39.79-2.75,1.64-4.2,2.31a3.55,3.55,0,0,0-1.81,1.75,17.68,17.68,0,0,0-1.32,3.41,13.38,13.38,0,0,0-.44,2.63,14.25,14.25,0,0,0,.08,3.86,5.36,5.36,0,0,0,.4,1.23,2.13,2.13,0,0,0,2.57,1.26,9.49,9.49,0,0,0,5.57-3.56,19.85,19.85,0,0,0,2.77-5.84,6.31,6.31,0,0,0,.35-2.29,2.77,2.77,0,0,1,.83-2.18,3.45,3.45,0,0,1,.76-.61c3.74-2.26,7.55-4.41,11.33-6.59C261.63,260.26,261.72,260.29,262,260.28Z"/><path d="M261.45,57s0,0,0,0h0Z"/><path d="M261.45,57l0,0s0,0,0,0Z"/><path d="M261.4,57l-.71-.22C261.06,56.6,261.29,56.69,261.4,57Z"/><path d="M261.81,58.47c-.83.14-.83.14-1.4-.26A1.5,1.5,0,0,1,261.81,58.47Z"/><path d="M258.88,337.78l-.43.26c-.27-.48-.57-.92-.87-1.36a11.77,11.77,0,0,0-1.4-1.68c-.82-.83-1.69-1.61-2.54-2.41l-.93-.88c-.13.19-.27.37-.4.54l-.56-.41a2.38,2.38,0,0,0,.34-.74c-1.51-1.62-3-3.21-4.43-4.79a4.88,4.88,0,0,0-2.4-.28,9.43,9.43,0,0,1-5.53-1c-1.9-1-3.87-1.91-5.81-2.87s-3.7-1.69-5.17-3.26a22.16,22.16,0,0,1-7.79,2.17l-.08-.76a24.73,24.73,0,0,0,6.72-1.78c.35-.15.66-.51,1-.53a16.26,16.26,0,0,0,3-.89,15,15,0,0,1,5.86-.88,3.11,3.11,0,0,0,.62-.06,23.42,23.42,0,0,0-8.75-6.57,2.85,2.85,0,0,0-1-.26,13.25,13.25,0,0,0-4.17.86c-.14,0-.24.2-.3.26a7.56,7.56,0,0,0-.94-.12l-2.92.07v-.63a12,12,0,0,0,2.61-.3,20.24,20.24,0,0,1-1.13-2c-.32-.75-.5-1.55-.75-2.35l.35-.76c.82.39,1.64.77,2.45,1.18,2,1,4,2.18,6.11,3.15a27.55,27.55,0,0,1,8.37,6.05c1.58,1.67,3.16,3.32,4.73,5q3.14,3.36,6.25,6.75a103.07,103.07,0,0,0,7.74,8,3.74,3.74,0,0,1,.75.89C258,336.19,258.42,337,258.88,337.78Zm-35.3-28.43a6.76,6.76,0,0,0,3.64-.86l-5.29-2.74-.21.19A11.3,11.3,0,0,0,223.58,309.35Z"/><path class="cls-1" d="M258.45,338a9.71,9.71,0,0,1,.73,1.52c-2.47.51-4.82,1.29-7.33,1.07a3.8,3.8,0,0,1-2.56-1.14,5,5,0,0,1,.81-4.16c.71-1,1.45-2,2.21-3.08.13-.17.27-.35.4-.54l.93.88c.85.8,1.72,1.58,2.54,2.41a11.77,11.77,0,0,1,1.4,1.68C257.88,337.12,258.18,337.56,258.45,338Z"/><path class="cls-1" d="M257.36,51.79c.29,2.21.57,4.37.88,6.75a8.68,8.68,0,0,1-1.4-3.24,33.83,33.83,0,0,1-.57-3.42Z"/><path d="M257,16.48l0,0s0,0,0-.05Z"/><path d="M256.83,16.67l-.13.2,0-.07Z"/><path d="M256.69,16.89s0,0,0,0Z"/><path class="cls-1" d="M252.09,331.1a2.38,2.38,0,0,1-.34.74c-.15.22-.32.44-.5.66-.71.93-1.41,1.86-2.05,2.83a16.29,16.29,0,0,0-.93,1.87,7.41,7.41,0,0,1-3.3-.34c-2-.55-4.07-1.19-6.1-1.78-1.16-.33-2.33-.66-3.51-.93a40.7,40.7,0,0,1-7-2.43,4.82,4.82,0,0,1-1.38-.94c-1.59-1.58-3.13-3.22-4.72-4.81a14.09,14.09,0,0,0-1.68-1.41,19.35,19.35,0,0,1-3.42-3.14c1.28-.09,2.53-.2,3.76-.35a22.16,22.16,0,0,0,7.79-2.17c1.47,1.57,3.36,2.34,5.17,3.26s3.91,1.83,5.81,2.87a9.43,9.43,0,0,0,5.53,1,4.88,4.88,0,0,1,2.4.28C249.12,327.89,250.58,329.48,252.09,331.1Z"/><path class="cls-1" d="M250.53,357.54l.89,0c-.41.48-.89.35-1.34.33-5.28-.19-10.55-.61-15.82-1.11-1.94-.18-3.88-.33-5.82-.49a60.18,60.18,0,0,1-11.6-2.15c-5.54-1.57-11.09-3.09-16.59-4.77a157.17,157.17,0,0,1-20.2-7.85c-4.24-2-8.43-4.05-12.62-6.11a23.5,23.5,0,0,1-6.63-5c-2.9-3-5.58-6.17-8.2-9.4-1.69-2.09-3.39-4.17-5-6.29-.58-.74-1-1.61-1.51-2.41-.23-.36-.37-.76-.83-1-.23-.09-.38-.44-.51-.71a39.15,39.15,0,0,1-3-8.41,30.51,30.51,0,0,1-.6-5.29,43.78,43.78,0,0,1,1.19-13.54c.36-1.38.85-2.73,1.34-4.07a16.82,16.82,0,0,1,3.4-5.34c1.49-1.69,3.11-3.27,4.67-4.89a6.26,6.26,0,0,1,.71-.49,1.91,1.91,0,0,1-.57.87c-1.74,1.93-3.51,3.84-5.21,5.8a14.85,14.85,0,0,0-2.51,4.37,34.65,34.65,0,0,0-2.31,10.37,54,54,0,0,0,.18,10.64,26,26,0,0,0,4.33,11.44,1.66,1.66,0,0,0,.29.22,2.13,2.13,0,0,0,.05-.46,21.17,21.17,0,0,1,.72-9.12,141.48,141.48,0,0,1,5.09-14.59,25.92,25.92,0,0,1,5.42-8A77.5,77.5,0,0,1,181,263.41c.42-.2.86-.37,1.49-.63-.12.37-.11.62-.23.71a7.86,7.86,0,0,1-1.17.81A89.22,89.22,0,0,0,161.84,279c-1.49,1.45-2.85,3-4.25,4.57a15.9,15.9,0,0,0-2.5,3.78,114.18,114.18,0,0,0-6.25,15.95,17.69,17.69,0,0,0-.86,6.54c.05.82,0,1.65.08,2.47a8.36,8.36,0,0,0,1.81,4.75c3.28,3.8,6.5,7.66,9.77,11.48a27.36,27.36,0,0,0,8.43,6.63,212.4,212.4,0,0,0,41.33,16.38l10.91,2.93a60.54,60.54,0,0,0,10,1.51c3.32.32,6.65.65,10,.9S247.11,357.32,250.53,357.54Z"/><path d="M248.65,267.48l.82,0a2.77,2.77,0,0,0-.83,2.18,6.31,6.31,0,0,1-.35,2.29,19.85,19.85,0,0,1-2.77,5.84,9.49,9.49,0,0,1-5.57,3.56,2.13,2.13,0,0,1-2.57-1.26,5.36,5.36,0,0,1-.4-1.23,14.25,14.25,0,0,1-.08-3.86,13.38,13.38,0,0,1,.44-2.63l.38.09c1.1,0,6.69-2.6,10.34-4.57A3.43,3.43,0,0,0,248.65,267.48Z"/><path class="cls-1" d="M248.76,267.4l-.11.08a3.43,3.43,0,0,1-.59.43c-3.65,2-9.24,4.57-10.34,4.57l10.53-5.12C248.34,267.32,248.48,267.37,248.76,267.4Z"/><path class="cls-1" d="M250.7,261.55a18.23,18.23,0,0,1-5,3.11A20.32,20.32,0,0,1,250.7,261.55Z"/><path d="M248,308l-.42.68-.55-.34c-1.4-.85-2.84-1.66-4.21-2.57A132.82,132.82,0,0,0,231,299,74.52,74.52,0,0,1,221,292.57c-2.84-2.12-5.69-4.23-8.5-6.4-2.22-1.71-4.39-3.5-6.55-5.24a6.59,6.59,0,0,0,0-.89c-.12-.94-.26-1.88-.4-2.83-.32-2.27-.64-4.54-1-6.81a1.53,1.53,0,0,0-.2-.5,3.21,3.21,0,0,1-.18-.37,73.85,73.85,0,0,0,3.1-8.24c.77-2.28,1.64-4.53,2.5-6.76l.65.25c-.24.6-.42,1.22-.63,1.84-.9,2.7-1.81,5.41-2.69,8.11a2.81,2.81,0,0,0-.15,1.14c.4,3.25.82,6.5,1.24,9.75.28,2.18.56,4.37.84,6.6,2.57,2.56,5.75,4.35,8.6,6.57,0-.08.11-.13.1-.15-.64-1.93-1.31-3.84-1.9-5.78a36.09,36.09,0,0,1-1.5-8.13c0-.73,0-1.45,0-2.17v-.06l.54,0a31.43,31.43,0,0,0,.63,5.2,57.45,57.45,0,0,0,2.87,10.22,7.16,7.16,0,0,0,2.66,3.58c2.5,1.62,4.9,3.41,7.43,5,1.94,1.22,4,2.19,6,3.34a4.06,4.06,0,0,0,2.23.47l2.49,0v.5a17.06,17.06,0,0,0-2.54.18l5,3,.24-.11.21.43Z"/><path class="cls-1" d="M246.66,300.53l.38,1c-.73.26-1.44.56-2.14.89-1,.45-2,.91-3,1.4l-.24.11-5-3a17.06,17.06,0,0,1,2.54-.18,29.64,29.64,0,0,1,3.68.27A7.57,7.57,0,0,0,246.66,300.53Z"/><path class="cls-1" d="M246.11,129.76l-.23.11c-.44-.63-.94-1.24-1.31-1.9-2.91-5.17-5.94-10.27-8.41-15.68a88,88,0,0,0-6.11-11.46c-.17-.26-.49-.51-.24-1,.33.45.62.81.88,1.2A96.79,96.79,0,0,1,237,112.19c2.05,4.15,4.18,8.26,6.33,12.37.86,1.64,1.83,3.23,2.75,4.85A1,1,0,0,1,246.11,129.76Z"/><path class="cls-1" d="M244.15,121a2.59,2.59,0,0,1,.24,1.26,3.43,3.43,0,0,1-.37-.54c-1.74-3.91-3.51-7.82-5.2-11.75a29.7,29.7,0,0,1-1.85-6.22,24.63,24.63,0,0,0-1.42-5,6.35,6.35,0,0,1-.36-1c-.76-2.84-1.52-5.67-2.24-8.52a16.92,16.92,0,0,1-.28-2.14h.23c.47,1.78.89,3.58,1.42,5.34.59,2,1.19,4.07,1.92,6.06a28.2,28.2,0,0,1,1.38,4.59,51.58,51.58,0,0,0,3.18,10C241.86,115.73,243,118.34,244.15,121Z"/><path class="cls-1" d="M243.57,226.72c0,.13,0,.16,0,.18a.19.19,0,0,1-.09.09q-7.5,2-14.89,4.35c-.07,0-.16,0-.35-.07a18.38,18.38,0,0,1,4.34-2.27,37.84,37.84,0,0,1,6.28-1.53C240.38,227.18,242,227,243.57,226.72Z"/><path class="cls-1" d="M238.06,316.17a3.11,3.11,0,0,1-.62.06,15,15,0,0,0-5.86.88,16.26,16.26,0,0,1-3,.89c-.36,0-.67.38-1,.53a24.73,24.73,0,0,1-6.72,1.78c-.78.09-1.55.16-2.34.21a13.92,13.92,0,0,1-5.72-.83,26.42,26.42,0,0,0-3.91-.88,18.16,18.16,0,0,1-4.28-1.45c-1.56-.72-3.17-1.39-4.8-2a8.44,8.44,0,0,1-4.52-3.29c-1.22-1.84-2.47-3.66-3.62-5.54a10.32,10.32,0,0,1-1.29-5.74c0-1.91,0-3.81,0-5.71a11.65,11.65,0,0,1,.24-2.7c.26-1.18.36-2.39.53-3.59,0-.17.05-.34.08-.51a19,19,0,0,0-.07-4.64,3.93,3.93,0,0,1,.07-.57,11.36,11.36,0,0,1,3.22,2.26,20.73,20.73,0,0,1,3.25,3.86c.69,1,1.46,2,2.34,3.26.07,1.51.2,3.23.19,4.95a7.31,7.31,0,0,0,1.1,3.94,16.52,16.52,0,0,0,5.82,5.63l1,.61,1.77,1a15.11,15.11,0,0,0,7.36,1.81c.88,0,1.77,0,2.66,0l2.92-.07a7.56,7.56,0,0,1,.94.12c.06-.06.16-.22.3-.26a13.25,13.25,0,0,1,4.17-.86,2.85,2.85,0,0,1,1,.26A23.42,23.42,0,0,1,238.06,316.17Z"/><path class="cls-1" d="M227.23,245.09l6.16-1c-.46.41-.69.64-.95.83q-2.88,2.12-5.76,4.2a14.69,14.69,0,0,1-1.82,1.25,14.57,14.57,0,0,0-4.2,3.61,21,21,0,0,0-4,6,9.06,9.06,0,0,1-.86,1.59,11.86,11.86,0,0,0-1.73,6.17c-.09,1.56.14,3.15.19,4.72v.06c0,.72,0,1.44,0,2.17a36.09,36.09,0,0,0,1.5,8.13c.59,1.94,1.26,3.85,1.9,5.78,0,0-.05.07-.1.15-2.85-2.22-6-4-8.6-6.57-.28-2.23-.56-4.42-.84-6.6-.42-3.25-.84-6.5-1.24-9.75a2.81,2.81,0,0,1,.15-1.14c.88-2.7,1.79-5.41,2.69-8.11.21-.62.39-1.24.63-1.84.32-.84.69-1.67.92-2.24,3.88-2,7.53-3.79,11.08-5.76A14.68,14.68,0,0,1,227.23,245.09Z"/><path class="cls-1" d="M227.22,308.49a6.76,6.76,0,0,1-3.64.86,11.3,11.3,0,0,1-1.86-3.41l.21-.19Z"/><path class="cls-1" d="M221.47,307.46a20.24,20.24,0,0,0,1.13,2,12,12,0,0,1-2.61.3c-2.93.07-6.68-.54-8.53-1.52-.37-2.74-.48-5.58-.77-8.73a58.1,58.1,0,0,0,10,5.58C221,305.91,221.15,306.71,221.47,307.46Z"/><path class="cls-1" d="M222.85,149.25l-1.71,2.23a10,10,0,0,0-2.13,4,9.1,9.1,0,0,0-.26,1.79c0,2.16-.23,4.31-.43,6.45a27.17,27.17,0,0,1-2.85,9.78c-1.26,2.51-2.45,5.07-3.79,7.55a17.52,17.52,0,0,0-1.77,6.31c-.06.43-.11.86-.16,1.29a3.5,3.5,0,0,0,.2,1.78,6.66,6.66,0,0,1,.25,4.55q-.85,3.06-1.65,6.14c-.27,1.09-.45,2.2-.68,3.3a8.22,8.22,0,0,1-1.79,3.69c-.67.79-1.2,1.7-1.8,2.55-.17.24-.36.46-.51.67a2,2,0,0,1-1.71-1.48c-.37-1.24-.69-2.5-1-3.76a1.67,1.67,0,0,1,.16-1c.63-1.42,1.3-2.82,2-4.22a6.91,6.91,0,0,0,.64-1.47,1.39,1.39,0,0,0-1.14.8c-1,1.73-2.41,3.27-3,5.28a7.41,7.41,0,0,0-.95,4.48c0,1.24.23,2.49.32,3.73.16,2,.29,4,.43,5.94a1.76,1.76,0,0,1-.12.34,2.52,2.52,0,0,1-.37-.35L195,213.91c-.08-.1-.14-.22-.22-.32a6,6,0,0,1-1.39-3.69c-.12-2.07-.19-4.14-.27-6.21,0-.35.09-.69.1-1,0-.55,0-1.11,0-1.69-.66-.07-.81.37-.86.78a24.58,24.58,0,0,0-.27,2.84c-.05,1.51-.08,3,0,4.55a8.37,8.37,0,0,0,.95,4.24c0,.05,0,.15-.05.31a2.17,2.17,0,0,1-1.42-1.52,6,6,0,0,1-.3-1.52c-.18-2.72-.74-5.39-1.13-8.08a25.92,25.92,0,0,1-.2-4.13,5,5,0,0,1,.61-2c1.18-2.4,2.45-4.77,3.63-7.18a16.33,16.33,0,0,0,1.63-4.49c.2-1.15.28-2.31.4-3.47.19-1.8.38-3.6.55-5.41.1-1.07.19-2.15.24-3.22,0-.83,0-1.65,0-2.47.08-4.33.16-8.65.27-13,0-2.2.12-4.41.26-6.61a14.37,14.37,0,0,1,2.1-6.61c.29-.5.62-1,1-1.47.55-.8,1.13-1.6,1.71-2.44l1,.72c1.42,1.05,2.81,2.17,4.29,3.15a19.85,19.85,0,0,0,6.79,2.8c1.57.35,3.13.66,4.7,1A18.48,18.48,0,0,1,222.85,149.25Z"/><path d="M221.07,304.35l-.35.76a58.1,58.1,0,0,1-10-5.58c.29,3.15.4,6,.77,8.73,1.85,1,5.6,1.59,8.53,1.52v.63c-.89,0-1.78,0-2.66,0a15.11,15.11,0,0,1-7.36-1.81l-1.77-1,.21-.37a1.3,1.3,0,0,0,.17-.85c-.51-3.12-.86-6.27-1.55-9.38l.51-.88q.7.48,1.38,1a56.26,56.26,0,0,0,8.86,5.64C218.87,303.33,220,303.84,221.07,304.35Z"/><path class="cls-1" d="M210.35,252.89l-.62,1.64c-.86,2.23-1.73,4.48-2.5,6.76a73.85,73.85,0,0,1-3.1,8.24,3.21,3.21,0,0,0,.18.37l-.39.12a37,37,0,0,0-3,7.67,16.49,16.49,0,0,1-7.22-4.83c1.15-1.89,2.31-3.71,3.34-5.59s2-3.91,3-5.9c.67-1.37,1.36-2.74,1.94-4.18.24-.58.45-1.19.64-1.8a5.84,5.84,0,0,1,2.05-.94C206.58,254,208.45,253.42,210.35,252.89Z"/><path class="cls-1" d="M209.3,320a6.53,6.53,0,0,1,.36,3.34A6.38,6.38,0,0,1,209.3,320Z"/><path class="cls-1" d="M208.59,306.4a1.3,1.3,0,0,1-.17.85,1.59,1.59,0,0,1-.21-.41c-.5-2.4-1.35-8.91-1.17-9.82C207.73,300.13,208.08,303.28,208.59,306.4Z"/><path d="M208.42,307.25l-.21.37-1-.61a16.52,16.52,0,0,1-5.82-5.63,7.31,7.31,0,0,1-1.1-3.94c0-1.72-.12-3.44-.19-4.95-.88-1.22-1.65-2.21-2.34-3.26a20.73,20.73,0,0,0-3.25-3.86,11.36,11.36,0,0,0-3.22-2.26,3.93,3.93,0,0,0-.07.57,19,19,0,0,1,.07,4.64c0,.17-.05.34-.08.51l-.57-.07a20.39,20.39,0,0,0-.23-6.27c-.45-.26-.87-.48-1.27-.72l-.29-.17.3-.57a11.32,11.32,0,0,0,1.28.57c.15.06.41,0,.46.14.26.52.79.67,1.22.93a20.27,20.27,0,0,1,5.77,5.34c.5.66.95,1.34,1.43,2a9.2,9.2,0,0,0,3,2.8c1,.55,1.94,1.15,2.88,1.76s1.6,1,2.38,1.56L207,297c-.18.91.67,7.42,1.17,9.82A1.59,1.59,0,0,0,208.42,307.25Z"/><path class="cls-1" d="M205.81,210c0,.9,0,1.59,0,2.27-.07.89-.21,1.78-.33,2.73l-1.62,1.49c-1.08-.59-.75-2-1.7-2.65-.07-.62-.14-1.25-.21-2a1.68,1.68,0,0,1,1.66.73,4.92,4.92,0,0,0,1.45-1.72A4.74,4.74,0,0,1,205.81,210Z"/><path d="M205.05,277.24a20.47,20.47,0,0,1,.41,3.45c-1.5-.7-2.88-1.42-4.32-2a30.44,30.44,0,0,1-5.63-2.94,9.81,9.81,0,0,1-1.84-1.62,2,2,0,0,1-.13-2.71c.3-.43.61-.85.9-1.28a105,105,0,0,0,7-13.15l.52.21c-.58,1.44-1.27,2.81-1.94,4.18-1,2-1.93,4-3,5.9s-2.19,3.7-3.34,5.59a16.49,16.49,0,0,0,7.22,4.83,37,37,0,0,1,3-7.67,23.09,23.09,0,0,1,.62,3.62C204.7,274.84,204.88,276,205.05,277.24Z"/><path class="cls-1" d="M203.79,237.45c.4,2,.42,2.91.11,3.55A8.09,8.09,0,0,1,203.79,237.45Z"/><path class="cls-1" d="M202.51,217.43a3.14,3.14,0,0,1,.41,4C202.78,220.06,202.65,218.79,202.51,217.43Z"/><path class="cls-1" d="M201,238.2a9.39,9.39,0,0,1,.55,4.58c-.09-.06-.23-.12-.24-.19A24.67,24.67,0,0,1,201,238.2Z"/><path class="cls-1" d="M201.62,242.8l0,0h0v0Z"/><path class="cls-1" d="M196.47,241.3a2.31,2.31,0,0,1,1.16-.16,5.28,5.28,0,0,1-.69.39l-7.81,2.82c-.68.25-1.38.49-2,.78-4.45,1.93-8.84,4-13.1,6.28a50.82,50.82,0,0,0-9.61,7.06l-7,6.25c-.22.19-.47.35-.7.53l-.2-.22c.75-.71,1.49-1.42,2.25-2.11,2.52-2.31,5-4.63,7.59-6.9a38.52,38.52,0,0,1,9-6q5.9-2.83,11.88-5.51c1.46-.65,3-1.07,4.53-1.59Z"/><path class="cls-1" d="M190.37,282.49a20.39,20.39,0,0,1,.23,6.27,24.46,24.46,0,0,1-1.17,5.05c-.12-1.81-.21-3.61-.36-5.42a23.42,23.42,0,0,0-1-6.49c-.07-.2-.12-.41-.23-.81.41.19.73.35,1,.51l.29.17C189.5,282,189.92,282.23,190.37,282.49Z"/><path d="M187,430.83v7H183.9V417.11h8.94a8.27,8.27,0,0,1,3,.52,7.25,7.25,0,0,1,2.35,1.44,6.45,6.45,0,0,1,1.54,2.17,6.79,6.79,0,0,1,.55,2.75,6.67,6.67,0,0,1-.55,2.74,6.57,6.57,0,0,1-1.53,2.17,7,7,0,0,1-2.33,1.43,8.32,8.32,0,0,1-3,.5Zm5.72-2.72a4.49,4.49,0,0,0,1.74-.33,4.56,4.56,0,0,0,1.39-.87,4.15,4.15,0,0,0,.92-1.3,3.91,3.91,0,0,0,.33-1.62,4.06,4.06,0,0,0-.33-1.63,4.38,4.38,0,0,0-.93-1.32,4.14,4.14,0,0,0-1.4-.89,4.67,4.67,0,0,0-1.76-.33H187v8.29Z"/><path d="M214.6,430.83h-5.33v7h-3.14V417.11h8.94a8.24,8.24,0,0,1,3,.52,7.3,7.3,0,0,1,2.36,1.44,6.43,6.43,0,0,1,1.53,2.17,6.79,6.79,0,0,1,.55,2.75,7,7,0,0,1-.33,2.18,6.52,6.52,0,0,1-2.43,3.29,6.93,6.93,0,0,1-1.92,1l5.66,7.43h-3.6Zm.39-2.72a4.53,4.53,0,0,0,1.74-.33,4.39,4.39,0,0,0,1.38-.87,4,4,0,0,0,.92-1.3,3.91,3.91,0,0,0,.34-1.62A4,4,0,0,0,218.1,421a4.14,4.14,0,0,0-1.4-.89,4.62,4.62,0,0,0-1.75-.33h-5.68v8.29Z"/><path d="M229.53,417.11h14.82v2.67H232.66v6.35H242.8v2.44H232.66v6.68h11.83v2.61h-15Z"/><path d="M254.47,430.83v7h-3.14V417.11h8.94a8.29,8.29,0,0,1,3,.52,7.25,7.25,0,0,1,2.35,1.44,6.45,6.45,0,0,1,1.54,2.17,7,7,0,0,1,.55,2.75,6.84,6.84,0,0,1-.55,2.74,6.57,6.57,0,0,1-1.53,2.17,7,7,0,0,1-2.33,1.43,8.38,8.38,0,0,1-3,.5Zm5.72-2.72a4.49,4.49,0,0,0,1.74-.33,4.56,4.56,0,0,0,1.39-.87,4,4,0,0,0,.91-1.3,3.76,3.76,0,0,0,.34-1.62,3.9,3.9,0,0,0-.34-1.63,4.13,4.13,0,0,0-2.33-2.21,4.58,4.58,0,0,0-1.75-.33h-5.68v8.29Z"/><path d="M287.6,433.46h-11l-2,4.4h-3.3l9.3-20.77h3l9.34,20.77h-3.3Zm-9.8-2.69h8.58l-4.08-8.87-.22-.78-.22.78Z"/><path d="M306.49,430.83h-5.33v7H298V417.11H307a8.29,8.29,0,0,1,3,.52,7.36,7.36,0,0,1,2.35,1.44,6.29,6.29,0,0,1,1.53,2.17,6.79,6.79,0,0,1,.55,2.75,7,7,0,0,1-.33,2.18,6.3,6.3,0,0,1-.95,1.84,6.74,6.74,0,0,1-1.47,1.45,7.13,7.13,0,0,1-1.93,1l5.66,7.43h-3.6Zm.39-2.72a4.61,4.61,0,0,0,3.13-1.2,4.12,4.12,0,0,0,.91-1.3,3.76,3.76,0,0,0,.34-1.62,3.9,3.9,0,0,0-.34-1.63A4.19,4.19,0,0,0,310,421a4.28,4.28,0,0,0-1.41-.89,4.62,4.62,0,0,0-1.75-.33h-5.68v8.29Z"/><path d="M335.45,433.46h-11l-2,4.4h-3.3l9.3-20.77h3l9.34,20.77h-3.3Zm-9.8-2.69h8.58l-4.08-8.87-.22-.78-.22.78Z"/><path d="M345.87,417.11h8.45a15.45,15.45,0,0,1,4.67.68,10.63,10.63,0,0,1,3.68,2,9.06,9.06,0,0,1,2.42,3.25,10.49,10.49,0,0,1,.88,4.41,11.35,11.35,0,0,1-.76,4.24A9.14,9.14,0,0,1,363,435a10.32,10.32,0,0,1-3.63,2.13,15.06,15.06,0,0,1-5,.75h-8.53Zm8.39,18a11.76,11.76,0,0,0,3.66-.52,7.29,7.29,0,0,0,2.68-1.51,6.18,6.18,0,0,0,1.65-2.39,8.33,8.33,0,0,0,.56-3.17,8.71,8.71,0,0,0-.53-3.13A6.52,6.52,0,0,0,360.7,422a7.36,7.36,0,0,0-2.67-1.59,11.28,11.28,0,0,0-3.77-.57H349v15.31Z"/><path d="M370.8,427.5a10.67,10.67,0,0,1,.85-4.27,11,11,0,0,1,2.36-3.47,11.06,11.06,0,0,1,3.57-2.34,12,12,0,0,1,8.92,0,11.13,11.13,0,0,1,3.59,2.33,10.6,10.6,0,0,1,2.37,3.47,10.87,10.87,0,0,1-2.37,12,11,11,0,0,1-3.59,2.33,12.06,12.06,0,0,1-8.92,0,11,11,0,0,1-3.57-2.33,10.74,10.74,0,0,1-3.21-7.74Zm3.13,0a8.31,8.31,0,0,0,.64,3.26,8.27,8.27,0,0,0,10.67,4.29,8.1,8.1,0,0,0,2.58-1.7,8.15,8.15,0,0,0,2.38-5.85,8.09,8.09,0,0,0-.64-3.25,8.19,8.19,0,0,0-1.74-2.59,8,8,0,0,0-2.58-1.71,8.13,8.13,0,0,0-3.16-.62,8.23,8.23,0,0,0-3.18.62,8,8,0,0,0-2.59,1.71,8.15,8.15,0,0,0-2.38,5.84Z"/><path d="M400.24,431.93a2.74,2.74,0,0,0,.46,1.47,4.36,4.36,0,0,0,1.17,1.22,6.14,6.14,0,0,0,1.72.85,6.76,6.76,0,0,0,2.08.31,8.74,8.74,0,0,0,4.72-1A3.05,3.05,0,0,0,412,432.1a2.47,2.47,0,0,0-.47-1.53,3.52,3.52,0,0,0-1.33-1,9.87,9.87,0,0,0-2.07-.67c-.82-.18-1.73-.34-2.73-.49-.8-.09-1.65-.23-2.54-.42a9.23,9.23,0,0,1-2.45-.86,5.11,5.11,0,0,1-1.84-1.61,4.56,4.56,0,0,1-.73-2.69,6.15,6.15,0,0,1,.47-2.37,5.31,5.31,0,0,1,1.5-2,7.7,7.7,0,0,1,2.67-1.37,13.56,13.56,0,0,1,4-.51,10.61,10.61,0,0,1,3.24.46,7.36,7.36,0,0,1,2.45,1.26,5.72,5.72,0,0,1,1.56,1.91,5.36,5.36,0,0,1,.55,2.4h-3.12a2.93,2.93,0,0,0-.42-1.39,3.49,3.49,0,0,0-1-1.08,5.25,5.25,0,0,0-1.51-.69,7.36,7.36,0,0,0-1.94-.24,8.8,8.8,0,0,0-2.46.3,4.89,4.89,0,0,0-1.65.82,3.08,3.08,0,0,0-.91,1.15,3.16,3.16,0,0,0-.29,1.31,2.2,2.2,0,0,0,.39,1.33,2.94,2.94,0,0,0,1.15.92,7.74,7.74,0,0,0,1.9.6c.76.15,1.65.27,2.67.37.6.08,1.21.18,1.85.28a14,14,0,0,1,1.86.45,10.49,10.49,0,0,1,1.72.7,5.37,5.37,0,0,1,1.42,1,4.8,4.8,0,0,1,1,1.47,5.19,5.19,0,0,1,.35,2,5.76,5.76,0,0,1-.65,2.8,5.67,5.67,0,0,1-1.89,2.05,9.13,9.13,0,0,1-3,1.26,17.18,17.18,0,0,1-4.05.43,10.11,10.11,0,0,1-3.54-.58,8.59,8.59,0,0,1-2.65-1.51,6.62,6.62,0,0,1-1.66-2.1,5.33,5.33,0,0,1-.58-2.35Z"/><path class="cls-2" d="M171.83,547.56c0,10.84-14,27.31-31.7,22.31-37.33-11.26-16.47-115.11,7.09-162.45-27.11,35.66-31.28,85.29-47.75,95.09-8.76,5.22-18.77-4.58-16.68-12.3,8.75-7.51,10.42-50.88,6.25-78.61-3.13,14-6.88,28.35-11.26,46.7-1.25,5.22-2.92,10.22-4.17,15-11.26,40.87-26.27,79.45-49.42,79.45C8.34,552.77,0,541.09,0,524.83a31.24,31.24,0,0,0,15.22-4.38C41.08,504.81,63.39,438.91,77,402.21c-20.65,5.42-54.43,24.61-54.43,53.59-10.84,0-23.56-10.42-19.6-27.11,8.55-35,58.18-33.57,79-39.41,1.46-4.79,3.76-8.55,5.63-10a8.6,8.6,0,0,1,4.8-1.46c3.13,0,6.46,1.46,7.5,4,1.26,2.5.63,6-.2,7.92-1.26,2.92-3.76,5.21-5.84,6.88,7.09,12.93,13.76,44.21,10.84,64.65,12.3-29.41,40.25-78,61.93-78,5,0,10.43,5.22,10.43,10.85C161,412,119.49,533.17,171.83,547.56Z"/><path class="cls-2" d="M218.39,512.11c-2.36,7.92-9,22.1-18.62,22.1s-12.09-7.23-12.09-14.74c-4.31,7.79-10,14.74-17,14.74-28.63,0-9-62.55,12.51-62.55,9,0,12.79,4,14.18,8.2.55-1.8,1.11-3.33,1.53-4.72h17.51c-4,12.65-6.81,20.71-9.32,29.46-2.91,10-2.77,16,1.4,15.85,3.05-.14,5.83-5.28,7.22-9.17Zm-25.57-16.68c.42-1.53,1.25-4.59,1.25-4.59s3.06-12.37-2.78-12.37c-6.81,0-19.88,41.56-12.37,41.56C185.31,520,192.82,495.43,192.82,495.43Z"/><path class="cls-2" d="M270.52,483.2c-1.39,12.23-15,14.31-16.68,11.67,3.06-5.56,3.06-12.23-2-12.23-3.19,0-9.45,6.81-13.34,17.1l-10.84,34.47H209.64l19.18-60.88h18.07l-3.34,10.56c4-6.39,9.59-12.23,16.13-12.23C263.85,471.66,271.77,473.89,270.52,483.2Z"/><path class="cls-2" d="M297.21,475.14c-4,12.65-6.82,20.71-9.32,29.46-2.92,10-2.78,16,1.39,15.85,3.06-.14,6.12-5.42,7.23-9.17l2.64.83c-2.36,7.92-9,22.1-18.62,22.1-15.71,0-14.32-17.1-10-30.3,3.33-10.84,7.09-22.52,9.17-28.77Zm-5.42-5.29a9.59,9.59,0,1,1,9.59-9.59A9.6,9.6,0,0,1,291.79,469.85Z"/><path class="cls-2" d="M344.05,484c0,6.67-4.86,11.82-11.12,11.82-2.78,0-5.28-1.81-5.28-3.2,3.89-2.22,8.89-15.15,1.94-15.15-11.53,0-20.43,28.91-14.17,38,7.64,11,24.6,4.17,27.79-4a15.49,15.49,0,0,0,2.09.56s-6.95,22.93-28.22,22.93c-35.44,0-22.65-63.79,12.65-63.79C337.79,471.11,344.05,476.25,344.05,484Z"/><path class="cls-2" d="M372.13,475.14c-4,12.65-6.82,20.71-9.32,29.46-2.92,10-2.78,16,1.39,15.85,3.06-.14,6.12-5.42,7.23-9.17l2.64.83c-2.36,7.92-9,22.1-18.62,22.1-15.71,0-14.32-17.1-10-30.3,3.33-10.84,7.09-22.52,9.17-28.77Zm-5.42-5.29a9.59,9.59,0,1,1,9.59-9.59A9.61,9.61,0,0,1,366.71,469.85Z"/><path class="cls-2" d="M418.55,484.87c0,12.37-11.26,24.6-25,23.49-3.75-.28-5.56-2.92-5.56-5.15,14-1.8,22.94-22.93,15.85-22.93-11.4,0-19.46,26-12.79,34.75,9.59,12.65,25.85,1.67,27.66-3.75,1.25.27,2.09.55,2.09.55s-6.82,22.66-28.22,22.66c-35.3,0-22.52-62.69,12.79-62.69C411.6,471.8,418.55,477.22,418.55,484.87Z"/><path class="cls-2" d="M456.5,448.17c-4,12.65-15.57,47.95-18.21,56.71-2.92,9.87-2.78,15.85,1.39,15.71,3.06-.14,6.12-5.56,7.23-9.18l2.64.84c-2.37,7.92-9,22-18.63,22-15.56,0-14-17-9.87-30.16,3.34-10.71,16-49.62,17.93-55.88Z"/><path class="cls-2" d="M486.1,522.26c-6,9.86-13.76,14.31-23.49,13.48a16.3,16.3,0,0,1-11.39-7c-2.92-3.89-4.31-8.76-4.17-14.46a64.18,64.18,0,0,1,4.17-20,41.26,41.26,0,0,1,10.84-16.54,24.43,24.43,0,0,1,17.79-6.12c10.15.56,15.15,6.4,15.15,17.79a71.54,71.54,0,0,1-.42,7.93,6,6,0,0,0,1.39-.28,17.56,17.56,0,0,0,8.2-6.67l.56.27a14.71,14.71,0,0,0,1.53,1.26c-.28.41-.7,1-1.25,1.8a35.4,35.4,0,0,1-6.26,7.37,20.26,20.26,0,0,1-5.28,3.06A61.83,61.83,0,0,1,486.1,522.26Zm.14-35.31c-.28-4.31-1.53-6.39-4-6.39s-5,2.08-7.37,6.39a59.17,59.17,0,0,0-5.69,14.46,52.94,52.94,0,0,0-2.23,14.31c.14,4.17,1.39,6.26,3.9,6.26s5.14-2.09,7.5-6.26a56.73,56.73,0,0,0,5.14-11.81l-.69-.7a4.64,4.64,0,0,1-1.11-4,9.08,9.08,0,0,1,1.66-3.75c1-1.11,1.67-1.53,2.51-1.39A66.33,66.33,0,0,0,486.24,487Z"/></g></g></svg>